<svg width="16" height="21" viewBox="0 0 16 21" fill="none" xmlns="http://www.w3.org/2000/svg">
<path d="M8.00023 20.0289C7.83084 20.0289 7.69336 19.8914 7.69336 19.722V0.306872C7.69336 0.137479 7.83084 0 8.00023 0C8.16962 0 8.3071 0.137479 8.3071 0.306872V19.722C8.3071 19.8914 8.16962 20.0289 8.00023 20.0289Z" fill="white"/>
<path d="M7.99908 20.0289C7.91745 20.0289 7.83951 19.9964 7.78181 19.9393L0.0897601 12.2448C-0.02992 12.1251 -0.02992 11.9306 0.0897601 11.8109C0.20944 11.6912 0.403997 11.6912 0.523677 11.8109L7.99847 19.2881L15.4763 11.8109C15.596 11.6912 15.7906 11.6912 15.9102 11.8109C16.0299 11.9306 16.0299 12.1251 15.9102 12.2448L8.21573 19.9387C8.15804 19.9964 8.08071 20.0289 7.99908 20.0289Z" fill="white"/>
</svg>
