<svg width="16" height="20" viewBox="0 0 16 20" fill="none" xmlns="http://www.w3.org/2000/svg">
<path d="M10.8686 3.49463H1.57955C0.707932 3.49463 0 4.20256 0 5.07418V18.4021C0 19.2737 0.707932 19.9817 1.57955 19.9817H10.8686C11.7402 19.9817 12.4481 19.2737 12.4481 18.4021V5.07418C12.4441 4.20256 11.7361 3.49463 10.8686 3.49463ZM11.3392 18.398C11.3392 18.6599 11.1264 18.8727 10.8645 18.8727H1.57546C1.31356 18.8727 1.10077 18.6599 1.10077 18.398V5.07418C1.10077 4.81228 1.31356 4.59949 1.57546 4.59949H10.8645C11.1264 4.59949 11.3392 4.81228 11.3392 5.07418V18.398Z" fill="white"/>
<path d="M14.4204 0H5.13131C4.25969 0 3.55176 0.707932 3.55176 1.57955C3.55176 1.88645 3.79728 2.13198 4.10419 2.13198C4.4111 2.13198 4.65662 1.88645 4.65662 1.57955C4.65662 1.31765 4.86941 1.10486 5.13131 1.10486H14.4204C14.6822 1.10486 14.895 1.31765 14.895 1.57955V14.9075C14.895 15.1694 14.6822 15.3822 14.4204 15.3822C14.1134 15.3822 13.8679 15.6277 13.8679 15.9346C13.8679 16.2415 14.1134 16.487 14.4204 16.487C15.292 16.487 15.9999 15.7791 15.9999 14.9075V1.57955C15.9999 0.707932 15.292 0 14.4204 0Z" fill="white"/>
</svg>
