<svg width="70" height="80" viewBox="0 0 70 80" fill="none" xmlns="http://www.w3.org/2000/svg">
<path d="M27.2324 18.1949C26.3659 18.0711 26.3247 18.0299 26.7373 17.9886C27.5212 17.8648 29.3365 18.0299 30.6155 18.3187C33.5861 19.0201 36.2679 20.8354 39.1148 24.0123L39.8574 24.8787L40.9301 24.7137C45.5098 23.9711 50.2133 24.5487 54.1328 26.3641C55.2055 26.8592 56.8971 27.8494 57.1034 28.0969C57.1859 28.1794 57.3097 28.7158 57.3922 29.2521C57.681 31.1913 57.5573 32.6353 56.9384 33.7493C56.6083 34.3682 56.6083 34.5332 56.8146 35.0696C56.9796 35.4822 57.4747 35.771 57.9286 35.771C58.9188 35.771 59.9502 34.2031 60.4453 32.0164L60.6516 31.15L61.023 31.5626C63.1271 33.9143 64.7775 37.1737 65.025 39.4842L65.1075 40.1031L64.7362 39.5667C64.1173 38.6178 63.5397 37.9989 62.7558 37.4626C61.353 36.5136 59.8677 36.2248 55.9482 36.0185C52.4 35.8122 50.3783 35.5234 48.3979 34.8633C45.0147 33.7493 43.2819 32.3053 39.2798 26.9829C37.5057 24.6312 36.3917 23.3522 35.2777 22.2795C32.8435 19.9277 30.4093 18.69 27.2324 18.1949Z" fill="white"/>
<path d="M57.9699 23.4348C58.0524 21.867 58.2587 20.8355 58.7125 19.8866C58.8776 19.5152 59.0426 19.1852 59.0838 19.1852C59.1251 19.1852 59.0426 19.474 58.9188 19.8041C58.5887 20.7117 58.5475 21.9907 58.7538 23.4348C59.0426 25.2914 59.1664 25.539 61.1468 27.5606C62.0544 28.5096 63.1272 29.7061 63.5397 30.2012L64.2411 31.1089L63.5397 30.4487C62.6733 29.6236 60.6929 28.0557 60.2391 27.8494C59.9503 27.6844 59.909 27.6844 59.7027 27.8907C59.5377 28.0557 59.4964 28.3033 59.4964 29.4998C59.4552 31.3564 59.2076 32.5116 58.5887 33.7081C58.2587 34.327 58.2174 34.2032 58.5062 33.5018C58.7125 32.9655 58.7538 32.7179 58.7538 30.9438C58.7538 27.3543 58.3412 26.4879 55.8244 25.0439C55.2056 24.6725 54.1328 24.1362 53.514 23.8474C52.8538 23.5586 52.3587 23.311 52.4 23.311C52.4825 23.2285 54.9167 23.9299 55.8657 24.3425C57.3097 24.9201 57.5573 24.9614 57.7223 24.9201C57.8461 24.7963 57.9286 24.4663 57.9699 23.4348Z" fill="white"/>
<path d="M28.924 29.5823C27.1912 27.1893 26.0772 23.476 26.3247 20.7117L26.4073 19.8453L26.8198 19.9278C27.5625 20.0516 28.8415 20.5467 29.4604 20.918C31.1107 21.9082 31.8534 23.2697 32.5548 26.6529C32.761 27.6431 33.0499 28.7983 33.1736 29.1697C33.3799 29.7885 34.1638 31.2326 34.824 32.1403C35.2778 32.8004 34.989 33.1305 33.9575 33.048C32.3897 32.8829 30.2855 31.4389 28.924 29.5823Z" fill="white"/>
<path d="M55.8657 47.5297C47.6966 44.229 44.8085 41.3822 44.8085 36.5549C44.8085 35.8536 44.8497 35.2759 44.8497 35.2759C44.891 35.2759 45.1798 35.5235 45.5511 35.8123C47.2015 37.1326 49.0581 37.7102 54.2154 38.4528C57.2272 38.9067 58.9601 39.2367 60.5279 39.7731C65.5202 41.4234 68.6146 44.8066 69.3572 49.3863C69.5635 50.7066 69.4397 53.2233 69.1097 54.5436C68.8208 55.5751 67.9957 57.4729 67.7894 57.5142C67.7481 57.5142 67.6656 57.3079 67.6656 56.9778C67.5831 55.245 66.7167 53.5947 65.2726 52.3157C63.5398 50.8303 61.3118 49.7164 55.8657 47.5297Z" fill="white"/>
<path d="M50.0895 48.8912C50.007 48.2723 49.8007 47.4884 49.6769 47.1583L49.4706 46.5394L49.842 46.9933C50.3783 47.6121 50.7909 48.3548 51.1622 49.3863C51.451 50.1702 51.451 50.4177 51.451 51.6967C51.451 52.9345 51.4098 53.2233 51.1622 53.9247C50.7496 55.0387 50.2545 55.8226 49.4294 56.689C47.9441 58.2155 46.0049 59.0407 43.2406 59.412C42.7455 59.4533 41.3427 59.5771 40.105 59.6596C37.0106 59.8246 34.9477 60.1547 33.0911 60.8148C32.8435 60.8973 32.596 60.9799 32.5547 60.9386C32.4722 60.8561 33.7512 60.1134 34.7827 59.6183C36.2267 58.9169 37.712 58.5456 40.9714 57.968C42.5805 57.7204 44.2308 57.3904 44.6434 57.2253C48.728 55.9463 50.7496 52.7694 50.0895 48.8912Z" fill="white"/>
<path d="M53.844 55.5338C52.7713 53.1821 52.5237 50.9541 53.1013 48.85C53.1839 48.6437 53.2664 48.4374 53.3489 48.4374C53.4314 48.4374 53.679 48.5612 53.9265 48.7262C54.4216 49.0563 55.4531 49.6339 58.0936 51.0779C61.4355 52.8933 63.3334 54.2961 64.6537 55.9051C65.8089 57.3079 66.5103 58.917 66.8404 60.8974C67.0467 62.0114 66.9229 64.6932 66.6341 65.8072C65.7264 69.3141 63.6635 72.1197 60.6516 73.7288C60.1978 73.9763 59.8265 74.1413 59.7852 74.1413C59.7439 74.1413 59.909 73.7288 60.1565 73.2337C61.1467 71.1295 61.2705 69.1078 60.5279 66.8386C60.074 65.4358 59.1251 63.7442 57.2272 60.8974C54.958 57.5967 54.4216 56.7303 53.844 55.5338Z" fill="white"/>
<path d="M23.1065 68.1589C26.1597 65.6008 29.9142 63.7855 33.3799 63.2078C34.8652 62.9603 37.3407 63.0428 38.7022 63.4141C40.8889 63.9918 42.8693 65.2295 43.9008 66.7561C44.891 68.2414 45.3448 69.5204 45.7986 72.3672C45.9637 73.4812 46.17 74.6364 46.2112 74.884C46.5413 76.3693 47.2014 77.5245 48.0266 78.1434C49.3056 79.0923 51.5336 79.1336 53.7202 78.3084C54.0916 78.1846 54.4216 78.0609 54.4216 78.1021C54.5042 78.1846 53.3902 78.9273 52.6475 79.2986C51.6161 79.835 50.7909 80 49.6769 80C47.6965 80 46.0049 78.9685 44.6434 76.9056C44.3546 76.493 43.777 75.2966 43.2819 74.1826C41.8378 70.8406 41.0952 69.8505 39.4036 68.7365C37.9183 67.7875 36.0204 67.5812 34.5764 68.2826C32.6785 69.1903 32.1834 71.6246 33.5036 73.1099C34.04 73.7287 35.0302 74.2238 35.8554 74.3476C37.3819 74.5539 38.7022 73.3574 38.7022 71.8309C38.7022 70.8407 38.3309 70.263 37.3407 69.8092C36.0204 69.2316 34.5764 69.8917 34.6176 71.1707C34.6176 71.7071 34.8652 72.0371 35.4015 72.2847C35.7316 72.4497 35.7316 72.4497 35.484 72.4085C34.2876 72.1609 33.9987 70.6756 34.9477 69.7267C36.1029 68.5714 38.5372 69.0665 39.3623 70.6756C39.6924 71.3358 39.7337 72.656 39.4449 73.4812C38.7435 75.2966 36.7631 76.2455 34.7414 75.7091C33.3799 75.3378 32.8023 74.9665 31.1519 73.2749C28.2638 70.3043 27.1499 69.7267 23.024 69.1078L22.2401 68.984L23.1065 68.1589Z" fill="white"/>
<path fill-rule="evenodd" clip-rule="evenodd" d="M1.40462 1.77411C11.0178 13.4502 25.8296 31.6039 26.5722 32.5941C27.1911 33.4193 26.9436 34.2032 25.9121 34.7808C25.3345 35.1109 24.138 35.4409 23.5604 35.4409C22.9002 35.4409 22.1163 35.1109 21.58 34.5745C21.2086 34.2032 19.5996 31.8515 15.9688 26.1991C13.2045 21.8669 10.8528 18.2775 10.8115 18.2362C10.6465 18.1537 10.6465 18.1537 15.68 27.148C18.8569 32.8004 19.8884 34.8221 19.8884 35.0696C19.8884 35.606 19.7233 35.8948 19.0632 36.6374C17.9492 37.8752 17.4541 39.278 17.0828 42.2073C16.6702 45.4667 15.5562 47.7772 12.3793 51.6967C10.5227 54.0072 10.2339 54.4198 9.78007 55.3687C9.20245 56.524 9.03742 57.1841 8.9549 58.6694C8.87239 60.2372 9.03742 61.2274 9.49126 62.7127C9.90384 64.033 10.3577 64.8994 11.4717 66.591C12.4206 68.0763 12.9982 69.1903 12.9982 69.6029C12.9982 69.9329 13.0807 69.9329 14.566 69.6029C18.1143 68.7777 21.0436 67.3749 22.6527 65.6421C23.6429 64.5694 23.8904 63.9917 23.8904 62.5064C23.8904 61.5575 23.8492 61.3512 23.6016 60.7736C23.189 59.8659 22.4051 59.1233 20.7135 57.968C18.4856 56.4415 17.5366 55.2037 17.2891 53.5534C17.0828 52.1506 17.3304 51.2016 18.5681 48.6024C19.8471 45.9206 20.1772 44.8066 20.3835 42.0835C20.5072 40.3507 20.7135 39.6493 21.2086 39.1129C21.745 38.5353 22.1988 38.329 23.4778 38.164C25.582 37.8752 26.9436 37.3388 28.0163 36.3074C28.9652 35.4409 29.3778 34.5745 29.4191 33.2955L29.4603 32.3466L28.924 31.7689C26.9848 29.541 0.12561 0 0.00183519 0C-0.0394232 0 0.620711 0.783909 1.40462 1.77411ZM14.0709 60.4435C14.5248 59.6596 14.2772 58.6694 13.5346 58.1743C12.8332 57.7205 11.7605 57.9268 11.7605 58.5456C11.7605 58.7107 11.843 58.8757 12.0905 58.9582C12.4619 59.1645 12.5031 59.3708 12.2143 59.8246C11.9255 60.2785 11.9255 60.6911 12.2968 60.9799C12.8744 61.4337 13.6584 61.1862 14.0709 60.4435Z" fill="white"/>
<path fill-rule="evenodd" clip-rule="evenodd" d="M30.7806 38.7416C29.7904 39.0304 28.8414 40.1031 28.5526 41.1758C28.3876 41.836 28.4701 43.0325 28.7589 43.4038C29.2128 43.9814 29.6253 44.1464 30.7806 44.1464C33.0498 44.1464 34.9889 43.1562 35.1952 41.9598C35.4015 40.9696 34.5351 39.608 33.3386 38.9892C32.7197 38.6591 31.4407 38.5353 30.7806 38.7416ZM33.4211 40.8045C33.7512 40.3094 33.6274 39.7731 33.0085 39.4017C31.8945 38.7003 30.203 39.278 30.203 40.3507C30.203 40.887 31.0694 41.4647 31.8945 41.4647C32.4309 41.4647 33.1736 41.1346 33.4211 40.8045Z" fill="white"/>
</svg>
