<svg width="56" height="56" viewBox="0 0 56 56" fill="none" xmlns="http://www.w3.org/2000/svg">
<path d="M28 56C43.464 56 56 43.464 56 28C56 12.536 43.464 0 28 0C12.536 0 0 12.536 0 28C0 43.464 12.536 56 28 56Z" fill="#039BE5"/>
<path d="M12.8122 27.3933L39.8089 16.9843C41.0619 16.5317 42.1562 17.29 41.7502 19.1847L41.7525 19.1823L37.1559 40.838C36.8152 42.3733 35.9029 42.7467 34.6265 42.0233L27.6265 36.8643L24.2502 40.117C23.8769 40.4903 23.5619 40.8053 22.8385 40.8053L23.3355 33.6817L36.3089 21.9613C36.8735 21.4643 36.1829 21.1843 35.4385 21.679L19.4062 31.773L12.4949 29.617C10.9945 29.141 10.9619 28.1167 12.8122 27.3933Z" fill="white"/>
</svg>
