<svg width="56" height="46" viewBox="0 0 56 46" fill="none" xmlns="http://www.w3.org/2000/svg">
<path d="M56 5.3865C53.9175 6.3 51.6985 6.9055 49.385 7.1995C51.765 5.7785 53.5815 3.5455 54.4355 0.854C52.2165 2.177 49.7665 3.1115 47.1555 3.633C45.0485 1.3895 42.0455 0 38.7695 0C32.4135 0 27.2965 5.159 27.2965 11.4835C27.2965 12.3935 27.3735 13.2685 27.5625 14.1015C18.018 13.636 9.5725 9.0615 3.899 2.093C2.9085 3.8115 2.3275 5.7785 2.3275 7.896C2.3275 11.872 4.375 15.3965 7.427 17.437C5.5825 17.402 3.773 16.8665 2.24 16.023C2.24 16.058 2.24 16.1035 2.24 16.149C2.24 21.728 6.2195 26.362 11.438 27.4295C10.5035 27.685 9.485 27.8075 8.428 27.8075C7.693 27.8075 6.951 27.7655 6.2545 27.6115C7.742 32.158 11.963 35.5005 16.982 35.609C13.076 38.6645 8.1165 40.5055 2.7475 40.5055C1.806 40.5055 0.903 40.4635 0 40.348C5.0855 43.6275 11.1125 45.5 17.612 45.5C38.738 45.5 50.288 28 50.288 12.831C50.288 12.3235 50.2705 11.8335 50.246 11.347C52.5245 9.73 54.439 7.7105 56 5.3865Z" fill="#03A9F4"/>
</svg>
