<svg width="49" height="56" viewBox="0 0 49 56" fill="none" xmlns="http://www.w3.org/2000/svg">
<rect x="4" y="7" width="42" height="35" fill="white"/>
<path d="M19.4322 23.4922C17.8362 23.4922 16.5762 24.8922 16.5762 26.6002C16.5762 28.3082 17.8642 29.7082 19.4322 29.7082C21.0282 29.7082 22.2882 28.3082 22.2882 26.6002C22.3162 24.8922 21.0282 23.4922 19.4322 23.4922ZM29.6522 23.4922C28.0562 23.4922 26.7962 24.8922 26.7962 26.6002C26.7962 28.3082 28.0842 29.7082 29.6522 29.7082C31.2482 29.7082 32.5082 28.3082 32.5082 26.6002C32.5082 24.8922 31.2482 23.4922 29.6522 23.4922Z" fill="#7289DA"/>
<path d="M43.26 0H5.74C2.576 0 0 2.576 0 5.768V43.624C0 46.816 2.576 49.392 5.74 49.392H37.492L36.008 44.212L39.592 47.544L42.98 50.68L49 56V5.768C49 2.576 46.424 0 43.26 0ZM32.452 36.568C32.452 36.568 31.444 35.364 30.604 34.3C34.272 33.264 35.672 30.968 35.672 30.968C34.524 31.724 33.432 32.256 32.452 32.62C31.052 33.208 29.708 33.6 28.392 33.824C25.704 34.328 23.24 34.188 21.14 33.796C19.544 33.488 18.172 33.04 17.024 32.592C16.38 32.34 15.68 32.032 14.98 31.64C14.896 31.584 14.812 31.556 14.728 31.5C14.672 31.472 14.644 31.444 14.616 31.416C14.112 31.136 13.832 30.94 13.832 30.94C13.832 30.94 15.176 33.18 18.732 34.244C17.892 35.308 16.856 36.568 16.856 36.568C10.668 36.372 8.316 32.312 8.316 32.312C8.316 23.296 12.348 15.988 12.348 15.988C16.38 12.964 20.216 13.048 20.216 13.048L20.496 13.384C15.456 14.84 13.132 17.052 13.132 17.052C13.132 17.052 13.748 16.716 14.784 16.24C17.78 14.924 20.16 14.56 21.14 14.476C21.308 14.448 21.448 14.42 21.616 14.42C23.324 14.196 25.256 14.14 27.272 14.364C29.932 14.672 32.788 15.456 35.7 17.052C35.7 17.052 33.488 14.952 28.728 13.496L29.12 13.048C29.12 13.048 32.956 12.964 36.988 15.988C36.988 15.988 41.02 23.296 41.02 32.312C41.02 32.312 38.64 36.372 32.452 36.568Z" fill="#7289DA"/>
</svg>
