<svg width="58" height="58" viewBox="0 0 58 58" fill="none" xmlns="http://www.w3.org/2000/svg">
<path d="M54.7338 28.911V20.8518C54.7338 18.119 52.6141 15.8966 49.9359 15.6811L42.4516 2.60851C41.758 1.39949 40.638 0.535356 39.2979 0.176532C37.9641 -0.179847 36.5694 0.00732247 35.3757 0.702122L9.71889 15.639H5.21277C2.33791 15.639 0 17.9768 0 20.8518V52.1282C0 55.003 2.33779 57.3409 5.21277 57.3409H49.521C52.3959 57.3409 54.7338 55.0032 54.7338 52.1282V44.069C56.2474 43.5293 57.3401 42.0963 57.3401 40.3995V32.5804C57.3401 30.8837 56.2474 29.4507 54.7338 28.911ZM46.9073 15.639H35.5488L44.0678 10.6793L46.9073 15.639ZM42.7729 8.41749L30.3687 15.639H25.2237L41.4864 6.1706L42.7729 8.41749ZM36.6877 2.95463C37.2769 2.60974 37.9654 2.51811 38.6234 2.69379C39.289 2.87192 39.8439 3.30209 40.1888 3.90404L40.1915 3.90881L20.0439 15.639H14.899L36.6877 2.95463ZM52.1273 52.1282C52.1273 53.5649 50.9578 54.7345 49.521 54.7345H5.21277C3.77601 54.7345 2.60645 53.5649 2.60645 52.1282V20.8518C2.60645 19.415 3.77601 18.2455 5.21277 18.2455H49.521C50.9578 18.2455 52.1273 19.415 52.1273 20.8518V28.6709H44.3082C39.9965 28.6709 36.4891 32.1782 36.4891 36.49C36.4891 40.8017 39.9965 44.3091 44.3082 44.3091H52.1273V52.1282V52.1282ZM54.7338 40.3995C54.7338 41.1185 54.1497 41.7028 53.4306 41.7028H44.3082C41.4334 41.7028 39.0955 39.365 39.0955 36.49C39.0955 33.6151 41.4333 31.2772 44.3082 31.2772H53.4306C54.1495 31.2772 54.7338 31.8613 54.7338 32.5804V40.3995V40.3995Z" fill="url(#paint0_linear)"/>
<path d="M25.961 38.6755C25.8667 37.7026 25.5867 36.6865 25.1512 35.7372C24.7561 34.8727 24.2376 34.0458 23.6113 33.2814C23.4354 33.0655 23.2566 32.8587 23.1643 32.7633L22.9517 32.5309C22.8997 32.4714 22.8561 32.4236 22.8129 32.3812L22.7492 32.3167C22.6797 32.2468 22.608 32.1742 22.5485 32.1017C22.5439 32.0958 22.5389 32.0902 22.5337 32.0845C22.5048 32.0528 22.4738 32.0211 22.439 31.9857C22.3938 31.9398 22.3426 31.8888 22.297 31.8315C22.2911 31.8243 22.285 31.8173 22.2789 31.8102C21.9548 31.4539 21.6822 31.1301 21.4459 30.8207C21.1692 30.4565 20.9737 30.1552 20.8112 29.8411C20.6231 29.4833 20.4823 29.0852 20.3933 28.6547C20.3088 28.2647 20.2595 27.8173 20.2462 27.3231C20.2332 26.8843 20.2599 26.4627 20.2875 26.111C20.3075 25.8769 20.3301 25.6697 20.3522 25.4865C20.3694 25.3438 20.3149 25.2018 20.2065 25.1073C20.0979 25.0126 19.9497 24.9776 19.8109 25.0143C19.6037 25.0684 19.3912 25.1401 19.181 25.227C18.7394 25.407 18.3049 25.6575 17.8892 25.9722C17.359 26.3747 16.8943 26.872 16.5086 27.4491C16.035 28.1544 15.6999 28.984 15.5398 29.8452C15.3571 30.7929 15.3773 31.8623 15.5962 32.8546C15.8041 33.8151 16.2066 34.796 16.7618 35.6942C17.0553 36.1619 17.3366 36.5529 17.6151 36.8811C17.698 36.9843 17.9265 37.251 17.9289 37.2541L18.0202 37.3586C18.084 37.4309 18.1296 37.4854 18.1761 37.541C18.2191 37.5921 18.2545 37.6344 18.2941 37.6766L18.3008 37.6835C18.7352 38.2031 19.0415 38.5845 19.2944 38.9221C19.5737 39.2935 19.8194 39.6537 20.0451 40.0225C20.2855 40.4165 20.4573 40.761 20.5855 41.1053C20.7302 41.497 20.8253 41.9214 20.8694 42.3687C20.91 42.7623 20.9102 43.2037 20.8705 43.7154C20.8305 44.1796 20.7582 44.6028 20.7013 44.9127C20.6587 45.1247 20.617 45.3204 20.579 45.4894C20.5468 45.6326 20.5888 45.7825 20.6911 45.8876C20.7738 45.973 20.8864 46.0192 21.003 46.0192C21.0306 46.0192 21.0584 46.0166 21.086 46.0114C21.2899 45.9714 21.4863 45.9193 21.6807 45.8533C22.1347 45.7056 22.5826 45.4907 23.0105 45.2164C23.5657 44.8654 24.0666 44.4153 24.4995 43.8799C25.0243 43.2308 25.4342 42.4516 25.6847 41.6273C25.9655 40.7102 26.0613 39.6889 25.961 38.6755Z" fill="url(#paint1_linear)"/>
<path d="M17.4442 41.336C17.2632 40.9402 17.0265 40.5623 16.7417 40.2149C16.67 40.127 16.5834 40.026 16.541 39.9821L16.4409 39.8726C16.4148 39.8433 16.3959 39.8229 16.3759 39.8027L16.3485 39.7751C16.3168 39.7434 16.2851 39.711 16.2582 39.6788C16.2534 39.6732 16.2484 39.6673 16.2432 39.6619L16.2056 39.6228C16.1837 39.6002 16.1622 39.5783 16.1437 39.5552C16.1389 39.5494 16.1339 39.5435 16.1287 39.5379C15.9856 39.3808 15.8624 39.2346 15.754 39.0932C15.6623 38.9718 15.5561 38.8239 15.4623 38.6431C15.3765 38.4798 15.3126 38.2986 15.2716 38.1012C15.2333 37.9237 15.211 37.7195 15.2049 37.4943C15.1995 37.3073 15.2099 37.1304 15.2184 37.0138C15.2294 36.8598 15.1578 36.7112 15.03 36.6241C14.9023 36.537 14.7381 36.5244 14.5984 36.5907C14.4377 36.6673 14.2798 36.7638 14.1286 36.878C13.8866 37.062 13.6746 37.2888 13.4991 37.5516C13.3483 37.776 13.1491 38.1483 13.0568 38.6442C12.9732 39.0778 12.9821 39.5665 13.082 40.0188C13.1769 40.4578 13.3607 40.9059 13.6151 41.3175C13.7491 41.5306 13.8773 41.709 14.0006 41.8545C14.0369 41.8995 14.1155 41.9905 14.1505 42.0311L14.1499 42.0317L14.1885 42.0756C14.2192 42.1102 14.2407 42.1358 14.2617 42.1614C14.28 42.1838 14.2956 42.2023 14.3102 42.2175L14.3169 42.2246C14.4509 42.3847 14.6236 42.5939 14.7711 42.7909C14.8993 42.961 15.0111 43.1252 15.1134 43.2931C15.2227 43.4717 15.3011 43.6287 15.3595 43.786C15.4256 43.965 15.4692 44.1594 15.4894 44.3649C15.5079 44.5441 15.5079 44.7457 15.4901 44.9763C15.4784 45.1134 15.459 45.2581 15.4317 45.4186C15.4049 45.5739 15.4647 45.7316 15.5874 45.8304C15.6658 45.8932 15.7623 45.926 15.8598 45.926C15.9148 45.926 15.9704 45.9156 16.0229 45.8943C16.1741 45.8328 16.3238 45.7546 16.465 45.664C16.7185 45.5044 16.9476 45.2985 17.1464 45.053C17.3858 44.7572 17.5728 44.4014 17.6872 44.0251C17.8139 43.6118 17.8586 43.1328 17.8139 42.6771C17.7704 42.2329 17.6427 41.7691 17.4442 41.336Z" fill="url(#paint2_linear)"/>
<path d="M44.308 33.8837C42.8712 33.8837 41.7017 35.0532 41.7017 36.49C41.7017 37.9267 42.8712 39.0963 44.308 39.0963C45.7447 39.0963 46.9143 37.9267 46.9143 36.49C46.9144 35.0532 45.7449 33.8837 44.308 33.8837Z" fill="white"/>
<defs>
<linearGradient id="paint0_linear" x1="28.67" y1="0" x2="28.67" y2="57.3409" gradientUnits="userSpaceOnUse">
<stop stop-color="#E41609"/>
<stop offset="1" stop-color="#FFE600"/>
</linearGradient>
<linearGradient id="paint1_linear" x1="20.7078" y1="25" x2="20.7078" y2="46.0192" gradientUnits="userSpaceOnUse">
<stop stop-color="#E41609"/>
<stop offset="1" stop-color="#FFE600"/>
</linearGradient>
<linearGradient id="paint2_linear" x1="15.4154" y1="36.5486" x2="15.4154" y2="45.926" gradientUnits="userSpaceOnUse">
<stop stop-color="#E41609"/>
<stop offset="1" stop-color="#FFE600"/>
</linearGradient>
</defs>
</svg>
