<svg width="56" height="56" viewBox="0 0 56 56" fill="none" xmlns="http://www.w3.org/2000/svg">
<path d="M28 56C43.464 56 56 43.464 56 28C56 12.536 43.464 0 28 0C12.536 0 0 12.536 0 28C0 43.464 12.536 56 28 56Z" fill="#FF4500"/>
<path d="M46.6779 27.9998C46.6786 27.4643 46.5737 26.9339 46.3691 26.439C46.1645 25.9441 45.8642 25.4944 45.4856 25.1157C45.1069 24.7371 44.6572 24.4368 44.1623 24.2322C43.6674 24.0276 43.137 23.9227 42.6015 23.9234C41.4991 23.9234 40.4964 24.3575 39.7615 25.0595C36.9551 23.0546 33.1123 21.7517 28.8354 21.5848L30.7063 12.8304L36.7875 14.1334C36.8227 14.8922 37.1533 15.6072 37.7088 16.1255C38.2643 16.6437 39.0005 16.9241 39.7599 16.9066C40.5194 16.8891 41.2419 16.5752 41.7729 16.0319C42.304 15.4886 42.6014 14.7591 42.6015 13.9995C42.601 13.2287 42.2946 12.4897 41.7496 11.9447C41.2046 11.3997 40.4656 11.0933 39.6948 11.0928C39.1506 11.0942 38.6178 11.2484 38.1569 11.5379C37.6961 11.8274 37.3259 12.2405 37.0883 12.7302L30.3059 11.2933C30.1053 11.2597 29.9048 11.2933 29.7709 11.3936C29.6039 11.4939 29.5037 11.6608 29.4707 11.8613L27.3986 21.6178C23.055 21.7517 19.1456 23.0546 16.3056 25.0931C15.5407 24.3625 14.5232 23.9555 13.4655 23.9571C12.93 23.9563 12.3996 24.0613 11.9047 24.2659C11.4098 24.4705 10.9601 24.7707 10.5815 25.1494C10.2028 25.528 9.90255 25.9777 9.69795 26.4726C9.49336 26.9675 9.38843 27.4979 9.38916 28.0334C9.38916 29.7038 10.3913 31.107 11.7951 31.7423C11.7269 32.1508 11.6934 32.5644 11.6948 32.9786C11.6948 39.2597 19.0123 44.3724 28.0338 44.3724C37.0553 44.3724 44.3728 39.2933 44.3728 32.9786C44.3728 32.5775 44.3392 32.1428 44.2725 31.7423C44.9898 31.4144 45.5979 30.8874 46.0243 30.2239C46.4507 29.5604 46.6775 28.7885 46.6779 27.9998ZM18.6779 30.9065C18.6784 30.1356 18.9848 29.3965 19.53 28.8515C20.0751 28.3064 20.8143 28.0001 21.5852 27.9998C23.1889 27.9998 24.4919 29.3027 24.4919 30.9065C24.4919 32.5102 23.1889 33.8138 21.5852 33.8138C19.9808 33.8468 18.6779 32.5102 18.6779 30.9065ZM34.9502 38.625C32.9454 40.6299 29.1362 40.7638 28.0338 40.7638C26.8978 40.7638 23.0887 40.5963 21.1168 38.625C21.0455 38.5554 20.9889 38.4723 20.9502 38.3804C20.9115 38.2886 20.8916 38.19 20.8916 38.0904C20.8916 37.9907 20.9115 37.8921 20.9502 37.8003C20.9889 37.7084 21.0455 37.6253 21.1168 37.5557C21.1864 37.4844 21.2696 37.4277 21.3614 37.3891C21.4532 37.3504 21.5519 37.3305 21.6515 37.3305C21.7511 37.3305 21.8498 37.3504 21.9416 37.3891C22.0334 37.4277 22.1166 37.4844 22.1862 37.5557C23.4561 38.8256 26.1292 39.2597 28.0338 39.2597C29.9384 39.2597 32.6445 38.8256 33.8808 37.5557C33.9505 37.4844 34.0336 37.4277 34.1254 37.3891C34.2173 37.3504 34.3159 37.3305 34.4155 37.3305C34.5152 37.3305 34.6138 37.3504 34.7056 37.3891C34.7974 37.4277 34.8806 37.4844 34.9502 37.5557C35.0794 37.7038 35.1506 37.8938 35.1506 38.0904C35.1506 38.2869 35.0794 38.4769 34.9502 38.625ZM34.4152 33.8468C32.8115 33.8468 31.5085 32.5438 31.5085 30.9401C31.5085 29.3363 32.8115 28.0334 34.4152 28.0334C35.1861 28.0337 35.9253 28.3401 36.4704 28.8851C37.0155 29.4301 37.322 30.1692 37.3225 30.9401C37.3225 32.5102 36.0196 33.8468 34.4152 33.8468Z" fill="white"/>
</svg>
