<svg width="24" height="24" viewBox="0 0 24 24" fill="none" xmlns="http://www.w3.org/2000/svg">
<path d="M14.1988 12.0002L23.5439 2.65458C24.152 2.04669 24.152 1.06381 23.5439 0.455919C22.936 -0.151973 21.9531 -0.151973 21.3453 0.455919L11.9999 9.80152L2.65474 0.455919C2.04658 -0.151973 1.064 -0.151973 0.456123 0.455919C-0.152041 1.06381 -0.152041 2.04669 0.456123 2.65458L9.80124 12.0002L0.456123 21.3458C-0.152041 21.9537 -0.152041 22.9365 0.456123 23.5444C0.759067 23.8477 1.15739 24 1.55543 24C1.95347 24 2.35151 23.8477 2.65474 23.5444L11.9999 14.1988L21.3453 23.5444C21.6485 23.8477 22.0465 24 22.4446 24C22.8426 24 23.2406 23.8477 23.5439 23.5444C24.152 22.9365 24.152 21.9537 23.5439 21.3458L14.1988 12.0002Z" fill="white"/>
</svg>
