<svg width="22" height="13" viewBox="0 0 22 13" fill="none" xmlns="http://www.w3.org/2000/svg">
<path d="M21.3429 6.94298C21.5446 6.66667 21.5358 6.28947 21.3209 6.02193C18.0709 2.02632 14.5622 0 10.8867 0C4.65427 0 0.325322 5.80702 0.145497 6.05263C-0.0562572 6.32895 -0.0474853 6.70614 0.167427 6.97368C3.41304 10.9737 6.92181 13 10.5973 13C16.8297 13 21.1587 7.19298 21.3429 6.94298ZM10.5973 11.4956C7.53585 11.4956 4.55339 9.8114 1.72006 6.49561C2.82971 5.18421 6.35602 1.50439 10.8867 1.50439C13.9481 1.50439 16.9306 3.1886 19.7639 6.50439C18.6543 7.81579 15.128 11.4956 10.5973 11.4956Z" fill="white"/>
<path d="M10.7421 2.67969C8.63679 2.67969 6.92188 4.3946 6.92188 6.49986C6.92188 8.60513 8.63679 10.32 10.7421 10.32C12.8473 10.32 14.5622 8.60513 14.5622 6.49986C14.5622 4.3946 12.8473 2.67969 10.7421 2.67969ZM10.7421 8.81565C9.46573 8.81565 8.42626 7.77618 8.42626 6.49986C8.42626 5.22355 9.46573 4.18407 10.7421 4.18407C12.0184 4.18407 13.0578 5.22355 13.0578 6.49986C13.0578 7.77618 12.0184 8.81565 10.7421 8.81565Z" fill="white"/>
</svg>
