<svg width="107" height="24" viewBox="0 0 107 24" fill="none" xmlns="http://www.w3.org/2000/svg">
<g opacity="0.3">
<path fill-rule="evenodd" clip-rule="evenodd" d="M94.5498 0.278647C95.056 0.185765 95.5645 0.0928824 96.0708 0C96.0708 3.8941 96.0708 7.78587 96.0708 11.68C96.0754 12.019 96.0568 12.5298 96.0963 12.8689C96.1706 13.4215 96.3982 13.8604 97.0321 13.9347C97.3525 13.9742 97.6683 13.8813 97.9632 13.7652C98.0863 14.1181 98.2163 14.4664 98.3417 14.8194C97.8262 15.0609 97.2596 15.184 96.6907 15.2188C96.368 15.2327 96.0382 15.2141 95.7271 15.1189C94.9608 14.8705 94.5777 14.1808 94.5498 13.4029C94.5498 9.02817 94.5498 4.65341 94.5498 0.278647Z" fill="white"/>
<path fill-rule="evenodd" clip-rule="evenodd" d="M90.0242 0.18817C90.3586 0.123152 90.7185 0.19978 90.9948 0.397155C91.2224 0.557377 91.3965 0.791906 91.4801 1.05662C91.5707 1.35152 91.5521 1.68125 91.4244 1.9599C91.2828 2.27338 91.0088 2.52648 90.6837 2.63794C90.3679 2.7494 90.008 2.73083 89.7061 2.58221C89.4553 2.46147 89.244 2.2548 89.1209 2.00402C88.9653 1.69054 88.9468 1.31669 89.0698 0.989281C89.2208 0.580598 89.5946 0.264798 90.0242 0.18817Z" fill="white"/>
<path fill-rule="evenodd" clip-rule="evenodd" d="M77.4063 4.89935C77.7848 4.78325 78.1819 4.70662 78.5813 4.72287C78.9481 4.73681 79.3174 4.84362 79.6192 5.05957C79.9257 5.27785 80.151 5.59597 80.3019 5.93963C80.8128 5.54488 81.442 5.22212 82.1317 4.98062C82.5264 4.8413 83.0768 4.74842 83.4994 4.76467C83.8523 4.7786 84.2053 4.89006 84.4956 5.0944C84.7324 5.25695 84.9275 5.47522 85.09 5.70975C85.22 5.89319 85.3361 6.09057 85.4081 6.30187C85.4615 6.45281 85.4755 6.61303 85.4847 6.77093C85.4847 9.41808 85.494 12.0652 85.4964 14.7124C85.4964 14.8076 85.4406 14.9307 85.3315 14.9307C84.9669 14.9307 84.6 14.9307 84.2355 14.9307C84.1705 14.933 84.1008 14.9214 84.0544 14.8772C84.0056 14.8354 83.9917 14.7704 83.9917 14.7124C83.994 12.4205 83.9917 10.1286 83.9917 7.83908C83.9917 7.65796 84.0079 7.47684 83.9754 7.29804C83.9452 7.12388 83.8709 6.96366 83.7896 6.81041C83.6526 6.5573 83.4529 6.33438 83.1952 6.20435C82.8771 6.03948 82.6007 6.02787 82.2571 6.09986C81.6859 6.22757 81.1286 6.55962 80.6479 6.93115C80.6502 9.47149 80.6479 12.0118 80.6479 14.5522C80.6456 14.6311 80.6595 14.7147 80.6316 14.7913C80.5968 14.8749 80.5016 14.9214 80.4134 14.9214C80.0604 14.9214 79.7051 14.9214 79.3522 14.9214C79.2756 14.919 79.1896 14.9144 79.1293 14.8633C79.0735 14.8192 79.0573 14.7449 79.0573 14.6775C79.0573 12.2417 79.0596 9.80819 79.0573 7.37234C79.0085 7.0101 78.8924 6.63625 78.644 6.35993C78.4466 6.14165 78.1517 6.02787 77.8614 6.01858C77.4551 6.00697 77.0626 6.14398 76.7004 6.31349C76.3544 6.48067 76.0293 6.68966 75.7274 6.93115C75.7112 9.46452 75.6903 11.9979 75.674 14.5336C75.6717 14.6404 75.6787 14.7472 75.6439 14.8494C75.623 14.9144 75.5649 14.9748 75.4929 14.9724C75.1167 14.9748 74.7406 14.9724 74.3644 14.9724C74.304 14.9748 74.2367 14.9608 74.1972 14.9121C74.1531 14.8563 74.1531 14.7797 74.1508 14.7124C74.1508 12.7386 74.1508 10.7649 74.1508 8.79112C74.1461 8.29885 74.1601 7.80657 74.1438 7.31662C74.1229 6.90793 74.0904 6.49461 73.9836 6.09753C73.9371 5.93035 73.8698 5.7678 73.7839 5.61687C73.7491 5.55417 73.7421 5.4729 73.7792 5.40788C73.821 5.33358 73.8977 5.29178 73.972 5.25463C74.2367 5.11995 74.4991 4.98527 74.7638 4.85059C74.8381 4.80647 74.9333 4.76931 75.0146 4.81576C75.0889 4.86684 75.1005 4.96205 75.1284 5.041C75.2329 5.34054 75.335 5.64009 75.4395 5.93963C76.0409 5.50076 76.6957 5.12691 77.4063 4.89935Z" fill="white"/>
<path fill-rule="evenodd" clip-rule="evenodd" d="M67.6489 4.86219C68.4942 4.67875 69.3812 4.78092 70.1916 5.06421C70.4099 5.13852 70.6212 5.22676 70.8301 5.32196C70.9439 5.38001 71.0507 5.47522 71.0809 5.60293C71.0972 5.67956 71.0972 5.76315 71.0647 5.83514C70.9648 6.05109 70.858 6.2624 70.7582 6.47602C70.7233 6.55265 70.6513 6.60606 70.5747 6.63625C70.4865 6.66876 70.389 6.64321 70.3077 6.60142C69.9942 6.4528 69.6691 6.32741 69.3347 6.23917C68.9144 6.12772 68.4709 6.07895 68.0437 6.16255C67.7348 6.22292 67.433 6.36457 67.2147 6.59677C66.9593 6.85916 66.8362 7.24231 66.8826 7.60687C66.9268 8.01323 67.1636 8.38244 67.4817 8.63322C67.6071 8.73307 67.7465 8.81434 67.8927 8.88632C68.594 9.24857 69.2953 9.61081 69.9988 9.97305C70.5608 10.3283 71.0415 10.8345 71.2992 11.4545C71.4687 11.8586 71.5337 12.3067 71.4826 12.7409C71.42 13.3052 71.1506 13.8346 70.7628 14.248C70.6978 14.3037 70.6374 14.3664 70.5747 14.4268C70.2868 14.6706 69.9571 14.8656 69.6018 14.9933C69.221 15.1443 68.81 15.2139 68.4013 15.2348C67.3935 15.2813 66.3973 15.0073 65.4848 14.5963C65.3779 14.5452 65.2618 14.5057 65.1736 14.4244C65.083 14.3408 65.0621 14.2085 65.097 14.0947C65.1481 13.9438 65.2224 13.8044 65.2827 13.6605C65.3524 13.5165 65.3965 13.354 65.5173 13.2425C65.573 13.1845 65.6659 13.1566 65.7425 13.1937C65.9027 13.2634 66.0537 13.3493 66.2185 13.4143C66.5459 13.5583 66.885 13.6767 67.2333 13.758C67.7465 13.8764 68.2782 13.9136 68.7983 13.8462C69.1165 13.7719 69.4044 13.5862 69.6087 13.3331C69.8502 13.0475 69.971 12.662 69.9338 12.2905C69.899 11.9538 69.7341 11.6333 69.4903 11.4011C69.286 11.1898 69.0306 11.0435 68.7682 10.9204C68.4198 10.7486 68.0692 10.5768 67.7209 10.405C67.5677 10.3214 67.3981 10.2796 67.2402 10.2006C66.5738 9.90339 65.984 9.40414 65.6403 8.75164C65.4639 8.41494 65.3524 8.03877 65.3315 7.65795C65.3083 7.23534 65.3919 6.80808 65.58 6.42726C65.8842 5.79334 66.4531 5.31732 67.0893 5.03635C67.2658 4.95043 67.4585 4.90863 67.6489 4.86219Z" fill="white"/>
<path fill-rule="evenodd" clip-rule="evenodd" d="M101.707 5.07835C102.155 4.89956 102.638 4.8206 103.121 4.82757C103.62 4.83454 104.122 4.92278 104.584 5.11783C104.958 5.27341 105.299 5.50097 105.589 5.77962C106.2 6.36245 106.574 7.15195 106.776 7.96235C106.969 8.71702 107.01 9.49956 106.999 10.2774C104.893 10.2774 102.787 10.2774 100.68 10.2774C100.683 11.0878 100.885 11.9145 101.354 12.5856C101.526 12.8387 101.744 13.057 101.983 13.2474C102.362 13.5353 102.812 13.7211 103.281 13.7977C103.762 13.879 104.259 13.8604 104.735 13.7489C105.285 13.6259 105.815 13.4122 106.291 13.1104C106.39 13.3426 106.495 13.5748 106.595 13.807C106.651 13.9393 106.72 14.0694 106.764 14.2041C106.393 14.4479 105.991 14.6452 105.571 14.7939C105.167 14.9448 104.749 15.0493 104.321 15.112C103.785 15.1863 103.237 15.1631 102.705 15.0632C101.886 14.9123 101.11 14.5106 100.525 13.9161C99.9398 13.324 99.5427 12.5647 99.3174 11.7682C99.134 11.1343 99.0551 10.4725 99.0527 9.81304C99.0551 8.79597 99.2617 7.76266 99.754 6.86634C100.184 6.07916 100.864 5.41041 101.707 5.07835ZM101.818 6.51107C101.44 6.77346 101.159 7.15892 100.975 7.57921C100.785 8.0204 100.704 8.50107 100.699 8.98174C102.25 8.97942 103.801 8.98174 105.355 8.98174C105.35 8.56377 105.283 8.1458 105.143 7.75105C105.006 7.37255 104.804 7.01263 104.519 6.72469C104.217 6.41818 103.818 6.20223 103.39 6.14418C102.845 6.06291 102.269 6.19062 101.818 6.51107Z" fill="white"/>
<path fill-rule="evenodd" clip-rule="evenodd" d="M87.7419 5.16913C87.7373 5.09715 87.8093 5.04838 87.8766 5.05535C88.9378 5.05535 89.999 5.05535 91.0601 5.05535C91.1298 5.04838 91.1971 5.10876 91.1879 5.18074C91.1879 8.36429 91.1879 11.5478 91.1879 14.7314C91.1948 14.808 91.1344 14.887 91.0532 14.8846C90.6352 14.887 90.2172 14.8846 89.7993 14.887C89.7482 14.887 89.6878 14.8846 89.653 14.8428C89.6251 14.815 89.6181 14.7709 89.6181 14.7337C89.6158 11.9263 89.6181 9.12128 89.6158 6.31623C89.0307 6.31391 88.4455 6.31623 87.8603 6.31391C87.7976 6.31855 87.7396 6.26514 87.7419 6.20245C87.7419 5.85878 87.7419 5.51512 87.7419 5.16913Z" fill="white"/>
<path fill-rule="evenodd" clip-rule="evenodd" d="M40.0306 15.8528C40.5716 15.8412 41.1173 15.8737 41.649 15.9828C41.8557 16.0293 42.0647 16.0827 42.2551 16.1779C42.3596 16.2313 42.4617 16.3079 42.4966 16.4217C42.5755 16.6562 42.5709 16.9093 42.5639 17.1532C42.543 17.5363 42.4803 17.9148 42.3944 18.2863C42.2017 19.1083 41.8905 19.9048 41.4517 20.6293C41.173 21.0821 40.8386 21.507 40.4369 21.8577C40.3347 21.9505 40.221 22.0457 40.0793 22.0574C40.0027 22.069 39.9191 22.0341 39.8866 21.9621C39.8541 21.8878 39.868 21.8019 39.8959 21.7276C40.2326 20.8754 40.5693 20.0209 40.8061 19.1362C40.8642 18.9156 40.9153 18.6927 40.9501 18.4674C40.9896 18.2027 41.0244 17.9241 40.9478 17.664C40.9106 17.534 40.8108 17.4318 40.6923 17.3714C40.4926 17.2669 40.2674 17.2275 40.0445 17.1973C39.4942 17.1323 38.9415 17.1532 38.3889 17.1857C37.7782 17.2251 37.1675 17.2925 36.5591 17.3668C36.4708 17.3761 36.3687 17.3691 36.3036 17.3018C36.2456 17.2437 36.2526 17.1485 36.2851 17.0789C36.3431 16.9628 36.4523 16.8838 36.5591 16.8165C37.0281 16.5007 37.5529 16.2824 38.0963 16.1291C38.7232 15.9503 39.3757 15.8667 40.0306 15.8528Z" fill="white"/>
<path fill-rule="evenodd" clip-rule="evenodd" d="M9.12125 16.5217C9.22342 16.4961 9.33256 16.5194 9.42544 16.5704C9.77375 16.7608 10.1174 16.9605 10.468 17.1486C13.1454 18.5721 16.0294 19.6007 18.99 20.2393C20.7153 20.6085 22.4685 20.8477 24.2286 20.9452C27.7558 21.1542 31.3109 20.7455 34.715 19.8144C36.0386 19.4498 37.3412 19.0086 38.6068 18.4815C38.7414 18.4304 38.8715 18.3607 39.0155 18.3468C39.2221 18.3236 39.445 18.4142 39.5472 18.5999C39.6285 18.7369 39.6169 18.9157 39.5333 19.0504C39.4381 19.2037 39.2778 19.2989 39.1362 19.4034C37.6524 20.4645 35.9968 21.2749 34.2854 21.8949C33.0965 22.3268 31.8751 22.6635 30.6351 22.9143C28.8634 23.2696 27.0568 23.4507 25.2503 23.4159C23.4855 23.3857 21.7254 23.1744 20.0071 22.7773C17.0859 22.1062 14.2902 20.8941 11.8056 19.2176C10.9092 18.6139 10.0547 17.9521 9.24664 17.2369C9.15144 17.1417 9.03069 17.0674 8.96335 16.9489C8.90994 16.8607 8.90065 16.7446 8.95174 16.654C8.98425 16.5867 9.05159 16.5403 9.12125 16.5217Z" fill="white"/>
<path fill-rule="evenodd" clip-rule="evenodd" d="M2.73354 4.62092C3.31406 4.42354 3.92476 4.33298 4.53546 4.31905C5.0347 4.30047 5.53395 4.35388 6.01926 4.46766C6.4024 4.56054 6.77857 4.69522 7.12224 4.8926C7.64238 5.18286 8.07196 5.64263 8.29023 6.19992C8.45278 6.61325 8.50851 7.05676 8.52941 7.49795C8.54798 7.91592 8.53869 8.33389 8.53869 8.75419C8.53869 9.62031 8.53869 10.4888 8.53869 11.3572C8.53869 11.7055 8.52476 12.0631 8.62229 12.4021C8.7082 12.7365 8.89629 13.0337 9.10063 13.3077C9.19351 13.4424 9.31658 13.5632 9.3607 13.7257C9.39786 13.8395 9.37464 13.9765 9.27943 14.0554C8.82895 14.4409 8.37847 14.8287 7.93496 15.2211C7.83279 15.307 7.7399 15.4139 7.60755 15.451C7.48912 15.4812 7.3498 15.4673 7.25692 15.3837C7.02239 15.1816 6.79715 14.9703 6.60442 14.7265C6.45116 14.5245 6.31416 14.3109 6.17019 14.1019C5.74061 14.5361 5.27388 14.9541 4.71426 15.2095C4.33112 15.386 3.91315 15.4766 3.49518 15.5114C3.04238 15.5462 2.58261 15.5462 2.1391 15.444C1.77221 15.3628 1.42158 15.2118 1.11739 14.9912C0.857318 14.8032 0.639045 14.564 0.467212 14.2946C0.200175 13.865 0.0585291 13.3681 0.0167323 12.8666C-0.0343533 12.2512 0.0306642 11.6173 0.274481 11.0461C0.502043 10.4911 0.899115 10.0127 1.38675 9.66443C1.71416 9.42758 2.07872 9.25111 2.46186 9.12339C2.76837 9.01426 3.08882 8.94924 3.40926 8.8819C4.19412 8.73561 4.99059 8.67291 5.78473 8.58468C5.77776 8.20386 5.80795 7.82072 5.74525 7.44454C5.70578 7.22627 5.6338 7.00335 5.48518 6.83384C5.26227 6.56448 4.91164 6.43677 4.57261 6.40658C4.15697 6.37872 3.72042 6.4716 3.38604 6.72703C3.15848 6.89422 2.99129 7.14035 2.9077 7.40971C2.87287 7.51421 2.8659 7.63031 2.81017 7.72784C2.75909 7.8184 2.68246 7.90431 2.57796 7.93218C2.51991 7.94843 2.45954 7.9345 2.39917 7.92753C1.86741 7.8718 1.33334 7.81375 0.799267 7.75802C0.711029 7.74641 0.620468 7.74873 0.539196 7.70926C0.450958 7.66978 0.369686 7.60477 0.337177 7.51188C0.297702 7.41436 0.327888 7.30986 0.348787 7.21002C0.453279 6.72006 0.655299 6.24404 0.961811 5.84464C1.40068 5.25716 2.04389 4.8508 2.73354 4.62092ZM4.22431 10.3471C3.89225 10.4493 3.56716 10.6095 3.32335 10.8626C3.24207 10.9392 3.1817 11.0321 3.119 11.1227C2.9077 11.464 2.845 11.8774 2.8659 12.2721C2.88448 12.5926 2.97504 12.9223 3.18634 13.1731C3.36282 13.389 3.62986 13.5214 3.90618 13.5492C4.25449 13.5887 4.61209 13.4842 4.88841 13.2706C5.15545 13.0802 5.35283 12.8062 5.49447 12.5136C5.6338 12.2326 5.71042 11.9215 5.74758 11.6103C5.79634 11.1273 5.77544 10.642 5.78009 10.159C5.25762 10.159 4.72819 10.1962 4.22431 10.3471Z" fill="white"/>
<path fill-rule="evenodd" clip-rule="evenodd" d="M28.8311 4.51194C29.3187 4.38423 29.8249 4.32617 30.3312 4.31921C30.7677 4.3076 31.2043 4.35172 31.6315 4.44228C31.9984 4.52123 32.3583 4.63733 32.6927 4.80916C32.9783 4.95081 33.2453 5.13425 33.4659 5.36646C33.7167 5.61027 33.9048 5.91679 34.0302 6.24187C34.1788 6.64127 34.2322 7.07085 34.2508 7.49579C34.2694 7.9393 34.2601 8.38281 34.2624 8.824C34.2624 9.79463 34.2601 10.7629 34.2624 11.7335C34.2624 12.0633 34.3158 12.393 34.4482 12.6949C34.5852 13.0014 34.7942 13.2661 34.9939 13.5331C35.0705 13.64 35.1285 13.7793 35.096 13.914C35.0798 13.9836 35.0333 14.0394 34.9799 14.0858C34.5573 14.4387 34.1393 14.801 33.7237 15.1632C33.6308 15.2422 33.5449 15.3351 33.4404 15.4001C33.3034 15.4953 33.0967 15.4883 32.9737 15.3745C32.7113 15.1516 32.4605 14.9124 32.2585 14.6338C32.1331 14.4596 32.0147 14.2808 31.8962 14.102C31.4411 14.5641 30.9395 15.0077 30.3312 15.2561C29.9225 15.4279 29.479 15.5022 29.0378 15.5231C28.5896 15.5487 28.1322 15.5278 27.6979 15.4024C27.3427 15.3026 27.0036 15.133 26.7204 14.8962C26.4672 14.6895 26.2606 14.4318 26.105 14.1438C25.9076 13.7723 25.7939 13.359 25.7497 12.9387C25.6754 12.191 25.7776 11.4085 26.1468 10.7443C26.4858 10.1174 27.0454 9.62512 27.6863 9.32325C28.0463 9.15374 28.4294 9.03299 28.8172 8.9494C29.7019 8.7497 30.6075 8.68468 31.5061 8.58483C31.4968 8.15061 31.5456 7.70709 31.4341 7.28216C31.3807 7.08246 31.2809 6.89437 31.1299 6.7504C30.8977 6.52749 30.575 6.42299 30.2569 6.40442C29.8551 6.38584 29.4348 6.48105 29.1098 6.72718C28.852 6.91991 28.6732 7.21017 28.6012 7.52133C28.5803 7.61886 28.5548 7.71638 28.4944 7.79533C28.434 7.88125 28.3365 7.94394 28.2297 7.9393C27.612 7.87428 26.9967 7.80694 26.379 7.74192C26.1932 7.72103 26.0168 7.55152 26.0516 7.35414C26.1677 6.66681 26.4812 6.00502 26.9804 5.51275C27.482 5.00422 28.1461 4.68609 28.8311 4.51194ZM29.9341 10.3519C29.5417 10.475 29.1585 10.6817 28.917 11.023C28.715 11.2807 28.6244 11.6082 28.5966 11.9309C28.5734 12.2653 28.6035 12.6159 28.7498 12.9224C28.8683 13.1709 29.0772 13.3822 29.3373 13.4774C29.6856 13.6098 30.0873 13.5749 30.4148 13.3985C30.7515 13.222 31.0046 12.9178 31.181 12.5857C31.3436 12.2839 31.4341 11.9495 31.4713 11.6082C31.5247 11.1275 31.4992 10.6422 31.5061 10.1592C30.9767 10.1592 30.4426 10.1963 29.9341 10.3519Z" fill="white"/>
<path fill-rule="evenodd" clip-rule="evenodd" d="M14.7246 4.69268C15.0451 4.53013 15.4003 4.44886 15.7556 4.42332C16.1364 4.40242 16.5265 4.43028 16.8911 4.54871C17.3276 4.68803 17.7085 4.97597 17.9894 5.33589C18.217 5.61918 18.3911 5.94427 18.5374 6.27865C18.6582 5.96749 18.8207 5.67027 19.0344 5.41252C19.306 5.08511 19.6543 4.82504 20.0421 4.65785C20.7782 4.34437 21.642 4.33508 22.3828 4.63695C22.9145 4.85058 23.3743 5.23836 23.6576 5.73528C23.848 6.07663 23.9385 6.46441 23.985 6.84987C24.0361 7.30267 24.0245 7.76012 24.0198 8.21524C24.0082 9.20212 24.0152 10.189 24.0129 11.1759C24.0129 12.4623 24.0152 13.7487 24.0129 15.0351C24.0152 15.2279 23.8387 15.3881 23.6506 15.3904C23.0237 15.3904 22.3967 15.3904 21.7674 15.3904C21.6792 15.3927 21.5886 15.3904 21.5097 15.344C21.3889 15.2836 21.3169 15.1512 21.3193 15.0189C21.3169 13.9832 21.3193 12.9476 21.3193 11.912C21.3216 10.9739 21.3123 10.0334 21.3262 9.09298C21.3286 8.76557 21.3286 8.43816 21.3053 8.11075C21.2891 7.86926 21.238 7.62312 21.1172 7.40949C21.0267 7.25391 20.892 7.12388 20.7271 7.04957C20.5205 6.95436 20.2883 6.93579 20.063 6.93579C19.522 6.96365 19.039 7.37698 18.8927 7.89248C18.7789 8.30116 18.7673 8.73074 18.758 9.15336C18.7557 11.1085 18.758 13.0637 18.7557 15.0189C18.7604 15.1443 18.693 15.272 18.5816 15.3347C18.5049 15.3834 18.412 15.3951 18.3215 15.3904C17.7294 15.3904 17.1372 15.3904 16.5451 15.3904C16.4638 15.3904 16.3779 15.3974 16.3013 15.3695C16.1805 15.3277 16.09 15.2186 16.0691 15.0932C16.0598 15.0258 16.0644 14.9608 16.0644 14.8935C16.0621 13.9414 16.0621 12.9894 16.0621 12.0374C16.0598 11.0389 16.0552 10.0404 16.0668 9.03958C16.0714 8.72145 16.0621 8.40333 16.0157 8.08753C15.9762 7.84139 15.9135 7.59525 15.7811 7.38162C15.6465 7.15871 15.4189 6.99848 15.1635 6.9474C14.8802 6.88935 14.5737 6.90328 14.3066 7.01938C14.0814 7.11691 13.9026 7.30732 13.7888 7.52095C13.624 7.83443 13.5659 8.1897 13.5311 8.53801C13.4962 8.91418 13.5032 9.29268 13.5032 9.66885C13.5009 11.4568 13.5032 13.2471 13.5009 15.0351C13.5032 15.2302 13.3221 15.3904 13.134 15.3904C12.4815 15.3904 11.829 15.3904 11.1765 15.3904C11.0256 15.3951 10.8793 15.2952 10.8259 15.1559C10.798 15.0839 10.805 15.0049 10.805 14.9283C10.805 11.6194 10.805 8.31045 10.805 5.00151C10.8003 4.80181 10.9791 4.62766 11.1765 4.62766C11.7802 4.62302 12.3863 4.62534 12.9924 4.62534C13.1433 4.62069 13.2896 4.71822 13.3476 4.85987C13.3825 4.93649 13.3732 5.02705 13.3732 5.11065C13.3732 5.50075 13.3732 5.89086 13.3732 6.28097C13.4057 6.28329 13.4173 6.25775 13.4266 6.2322C13.5543 5.89551 13.7308 5.57274 13.963 5.29641C14.1743 5.04563 14.432 4.83665 14.7246 4.69268Z" fill="white"/>
<path fill-rule="evenodd" clip-rule="evenodd" d="M49.0375 4.43034C49.8549 4.36997 50.7001 4.51162 51.4222 4.91101C52.0283 5.24074 52.5322 5.74231 52.9014 6.3205C53.3078 6.94978 53.5632 7.66265 53.7118 8.3941C53.8674 9.16503 53.9115 9.95917 53.8511 10.7417C53.7838 11.5591 53.5864 12.3695 53.2242 13.1056C52.9409 13.6884 52.5461 14.2225 52.0515 14.6428C51.4757 15.1374 50.7558 15.4625 50.0011 15.5623C49.1745 15.6738 48.306 15.5669 47.5537 15.1931C46.9546 14.8959 46.4461 14.4384 46.0629 13.8951C45.6357 13.2913 45.357 12.5924 45.1875 11.8772C44.9832 10.9971 44.9344 10.0822 45.0134 9.1836C45.0923 8.31747 45.3036 7.45599 45.7077 6.68274C46.0235 6.07436 46.467 5.52636 47.0289 5.13161C47.6164 4.71364 48.3223 4.48143 49.0375 4.43034ZM49.2534 6.4784C48.9028 6.50859 48.5754 6.71293 48.3827 7.00783C48.169 7.31434 48.0599 7.68123 47.9902 8.04579C47.8974 8.51949 47.8741 9.0048 47.8672 9.49011C47.8648 10.3539 47.8648 11.227 48.0553 12.0746C48.1435 12.4229 48.2573 12.7735 48.4779 13.0614C48.6381 13.2797 48.8749 13.4469 49.142 13.5003C49.5019 13.5723 49.899 13.4957 50.1846 13.2611C50.4284 13.0684 50.5817 12.7898 50.6885 12.5041C50.8115 12.1791 50.8742 11.8377 50.916 11.4964C50.9834 10.9368 50.9857 10.3748 50.9811 9.81288C50.9671 9.02338 50.923 8.22459 50.6978 7.46528C50.6095 7.17734 50.4632 6.89173 50.2171 6.71061C49.9454 6.50162 49.5855 6.45054 49.2534 6.4784Z" fill="white"/>
<path fill-rule="evenodd" clip-rule="evenodd" d="M59.2568 4.72515C59.6214 4.52081 60.0393 4.43489 60.4527 4.42096C60.8938 4.40006 61.3443 4.46044 61.7553 4.63227C62.3776 4.88537 62.8746 5.41712 63.1068 6.0464C63.2089 6.32273 63.2693 6.61299 63.3134 6.90092C63.3877 7.44428 63.404 7.98997 63.404 8.53797C63.404 10.6743 63.404 12.8106 63.404 14.9469C63.404 15.0142 63.411 15.0862 63.3854 15.1512C63.3459 15.2603 63.2484 15.3463 63.1393 15.3741C63.0696 15.395 62.9976 15.3904 62.928 15.3904C62.3057 15.3904 61.6833 15.3904 61.061 15.3904C60.9333 15.3904 60.8102 15.3114 60.7522 15.1976C60.7058 15.1164 60.715 15.0188 60.715 14.9283C60.715 12.9429 60.715 10.9552 60.7174 8.96755C60.715 8.52404 60.6965 8.07124 60.5479 7.6463C60.4527 7.37462 60.2692 7.11687 59.9999 6.99613C59.8118 6.91021 59.5981 6.88467 59.3915 6.8986C59.0385 6.92879 58.7158 7.14009 58.5114 7.42338C58.3837 7.59522 58.3024 7.79491 58.2374 7.99693C58.0981 8.41258 58.054 8.85377 58.0424 9.29264C58.0331 9.69204 58.0377 10.0938 58.0377 10.4931C58.0377 12.0071 58.0377 13.5211 58.0377 15.0328C58.04 15.2278 57.8589 15.3904 57.6708 15.3904C57.023 15.3904 56.3774 15.3904 55.7296 15.3904C55.5833 15.395 55.437 15.3091 55.3789 15.1721C55.3395 15.0908 55.3488 14.9979 55.3488 14.9097C55.3464 11.6008 55.3441 8.29184 55.3418 4.98522C55.3418 4.83661 55.4509 4.69729 55.5903 4.65084C55.6739 4.61834 55.7667 4.6253 55.855 4.6253C56.3705 4.6253 56.8836 4.6253 57.3991 4.6253C57.4851 4.6253 57.5779 4.61601 57.6615 4.65317C57.7823 4.69729 57.8891 4.81339 57.8891 4.94807C57.8891 5.44963 57.8868 5.9512 57.8891 6.45509C57.9263 6.46205 57.9379 6.42258 57.9495 6.39703C58.0911 6.05105 58.2629 5.7097 58.4882 5.40784C58.6949 5.13151 58.9526 4.89002 59.2568 4.72515Z" fill="white"/>
<path fill-rule="evenodd" clip-rule="evenodd" d="M36.7513 4.70931C36.8256 4.63036 36.9371 4.60017 37.0439 4.60017C39.143 4.60017 41.2445 4.60017 43.3436 4.60017C43.4528 4.60017 43.5712 4.59553 43.6687 4.65823C43.7755 4.72092 43.8382 4.84167 43.8382 4.96474C43.8406 5.35484 43.8382 5.74263 43.8406 6.13274C43.8522 6.39745 43.678 6.62037 43.5433 6.834C42.3661 8.51285 41.1865 10.194 40.0092 11.8729C41.0494 11.8566 42.1083 11.9774 43.0789 12.3721C43.2902 12.458 43.4969 12.5579 43.6966 12.6717C43.9172 12.7878 44.0403 13.0339 44.031 13.2777C44.031 13.7189 44.031 14.1624 44.031 14.6059C44.031 14.6826 44.0356 14.7615 44.0217 14.8381C43.9845 14.9775 43.8684 15.1029 43.7198 15.1214C43.6548 15.1307 43.5921 15.1075 43.5364 15.0773C41.4883 14.0254 38.9387 13.9952 36.879 15.0355C36.7838 15.0796 36.6886 15.1563 36.5772 15.133C36.403 15.0959 36.2799 14.9217 36.2823 14.7476C36.2823 14.246 36.2846 13.7444 36.2846 13.2406C36.2823 12.9271 36.3403 12.602 36.5145 12.335C36.619 12.1771 36.7304 12.0238 36.8372 11.8682C38.0238 10.1685 39.2081 8.46873 40.3923 6.7713C39.2708 6.76898 38.1469 6.7713 37.0253 6.7713C36.9185 6.76898 36.8094 6.73183 36.7397 6.65055C36.6724 6.57857 36.6468 6.47872 36.6491 6.38352C36.6491 5.91678 36.6491 5.45005 36.6491 4.98331C36.6468 4.88347 36.6793 4.77897 36.7513 4.70931Z" fill="white"/>
</g>
</svg>
