<svg width="103" height="104" viewBox="0 0 103 104" fill="none" xmlns="http://www.w3.org/2000/svg">
<path d="M38.8183 87.9239C33.4282 85.794 19.5807 77.6145 16.0238 70.3682C12.6484 63.4936 12.2485 55.2471 13.9786 49.0877C16.3101 40.7823 19.6973 35.7029 22.7663 32.5826C24.2495 31.0733 26.0369 29.897 28.0098 29.1317C29.9826 28.3664 32.0957 28.0297 34.2087 28.144C45.2431 28.7597 44.384 24.6719 48.8856 19.5544C60.1669 6.72696 79.1556 25.8366 80.6509 27.7933C74.4826 22.6692 66.7903 22.4023 61.1395 28.1124C58.9055 30.3718 57.4984 37.3186 46.4626 36.702C44.3497 36.5877 42.2366 36.9244 40.2637 37.6897C38.2909 38.455 36.5035 39.6313 35.0203 41.1406C31.9512 44.2609 28.6122 49.3551 26.2326 57.6457C22.8202 69.5342 28.0634 82.1945 38.8183 87.9239Z" fill="#F3C4AD"/>
<path d="M38.8181 87.9242C28.0633 82.1947 22.8201 69.5345 26.2324 57.646C28.612 49.3554 31.9511 44.2612 35.0202 41.1408C36.5034 39.6316 38.2908 38.4553 40.2636 37.69C42.2364 36.9247 44.3495 36.588 46.4625 36.7023C57.4982 37.3189 58.9054 30.3721 61.1394 28.1127C66.7901 22.4026 74.4824 22.6694 80.6507 27.7936C88.0523 33.9431 97.4524 47.2517 82.572 69.7973C76.9337 78.3403 69.1615 85.9246 59.3236 88.7217C50.6356 91.1926 45.7661 91.1194 40.3311 88.6678C39.8147 88.4354 39.3104 88.1875 38.8181 87.9242Z" fill="#E8CFD0"/>
<path d="M41.9143 85.551C31.6238 81.1489 26.6155 69.8178 29.9293 59.0802C32.1411 51.9205 35.1527 47.495 37.8981 44.7707C39.2266 43.4515 40.8113 42.4184 42.5544 41.735C44.2975 41.0517 46.1621 40.7326 48.0332 40.7974C57.7428 41.1722 60.0535 33.8063 62.0519 31.833C67.1072 26.8458 73.876 26.9692 79.2363 31.2877C85.6692 36.4704 92.7865 49.1575 79.3698 68.7436C74.2871 76.1644 67.3383 82.791 58.6375 85.3341C50.9505 87.5784 46.6642 87.5825 41.9143 85.551Z" fill="#9B292B"/>
<path d="M46.7236 71.7854C42.8539 73.3417 38.526 71.6427 37.0546 67.9888C35.5832 64.335 37.5296 60.112 41.4001 58.5543C45.2706 56.9967 49.5998 58.6967 51.0691 62.3509C52.5383 66.0051 50.5941 70.2277 46.7236 71.7854Z" fill="#F3C4AD"/>
<path d="M45.5772 68.9349C43.3755 69.8199 40.9116 68.8532 40.075 66.7739C39.2384 64.6946 40.3457 62.2912 42.547 61.4041C44.7483 60.517 47.2135 61.4845 48.0501 63.5638C48.8867 65.6431 47.7798 68.0487 45.5772 68.9349Z" fill="#DF5255"/>
<path d="M35.2427 48.5725C36.5713 47.2533 38.1559 46.2201 39.899 45.5368C41.6421 44.8534 43.5067 44.5343 45.3779 44.5992C55.0874 44.974 57.3981 37.6081 59.3966 35.6347C64.4519 30.6476 71.2207 30.7709 76.581 35.0895C82.8492 40.1394 89.7638 52.3156 77.7016 71.0558C78.2778 70.2961 78.8338 69.5254 79.3695 68.7437C92.7862 49.1576 85.6689 36.4705 79.2361 31.2879C73.8757 26.9693 67.1069 26.8459 62.0516 31.8331C60.0532 33.8065 57.7425 41.1723 48.0329 40.7975C46.1618 40.7327 44.2972 41.0518 42.5541 41.7352C40.811 42.4185 39.2263 43.4516 37.8978 44.7709C36.2841 46.399 34.8873 48.2286 33.742 50.2144C34.247 49.6078 34.749 49.0623 35.2427 48.5725Z" fill="#7C2022"/>
<path d="M82.315 44.614C82.4215 44.4617 82.5713 44.3449 82.7449 44.2788C82.9186 44.2127 83.1081 44.2002 83.2889 44.2431C83.4697 44.286 83.6334 44.3822 83.7589 44.5192C83.8844 44.6563 83.9658 44.8278 83.9926 45.0117C84.7368 50.159 83.4794 55.8558 80.2552 61.9439C80.1401 62.1613 79.9434 62.324 79.7083 62.3963C79.4732 62.4686 79.219 62.4446 79.0016 62.3295C78.7843 62.2144 78.6215 62.0176 78.5492 61.7825C78.4769 61.5474 78.501 61.2933 78.6161 61.0759C81.6523 55.3426 82.8436 50.027 82.1568 45.277C82.123 45.0439 82.1796 44.8067 82.315 44.614Z" fill="#F4F8FC"/>
<path d="M76.6179 64.5008C76.7573 64.3028 76.9685 64.1672 77.2065 64.1228C77.4445 64.0785 77.6904 64.129 77.8917 64.2635C78.093 64.398 78.2337 64.6059 78.2837 64.8428C78.3338 65.0796 78.2893 65.3267 78.1596 65.5311C77.8145 66.0719 77.4496 66.6236 77.0749 67.1707L77.0699 67.1778C76.93 67.3801 76.7154 67.5185 76.4734 67.5625C76.2315 67.6066 75.9819 67.5528 75.7796 67.4128C75.5773 67.2729 75.4389 67.0583 75.3949 66.8163C75.3508 66.5744 75.4046 66.3248 75.5446 66.1225C75.9079 65.592 76.2615 65.0573 76.5959 64.5335C76.6031 64.5223 76.6105 64.5115 76.6179 64.5008Z" fill="#F4F8FC"/>
<path d="M25.2657 44.1983C25.4138 43.9861 25.4764 43.7274 25.4397 43.4794C25.403 43.2313 25.2699 43.0141 25.0699 42.8756L18.4837 38.3147C18.1483 38.8739 17.8271 39.4429 17.5202 40.0218L23.9529 44.4763C24.1529 44.6149 24.4037 44.6634 24.6499 44.6113C24.8961 44.5591 25.1176 44.4106 25.2657 44.1983Z" fill="#D1A695"/>
<path d="M19.7034 46.1619C19.8507 45.9515 19.9129 45.6952 19.8763 45.4493C19.8397 45.2034 19.7073 44.988 19.5082 44.8506L16.2973 42.6345C16.0266 43.2321 15.7695 43.839 15.5261 44.4553L18.3975 46.4371C18.5966 46.5745 18.846 46.6227 19.0909 46.5711C19.3358 46.5194 19.5562 46.3723 19.7034 46.1619Z" fill="#D1A695"/>
<path d="M62.9704 22.0772C63.1188 21.8643 63.1815 21.6049 63.1447 21.3561C63.1079 21.1073 62.9747 20.8895 62.7743 20.7505L55.2417 15.5269C54.5009 15.76 53.7753 16.0498 53.0715 16.3939C53.0987 16.4187 53.1274 16.4417 53.1574 16.4628L61.6556 22.3561C61.856 22.495 62.1071 22.5437 62.3536 22.4914C62.6002 22.4391 62.8221 22.2901 62.9704 22.0772Z" fill="#D1A695"/>
<path d="M55.7192 22.6758C55.8721 22.4684 55.9414 22.2126 55.9118 21.9643C55.8822 21.716 55.7562 21.4956 55.5614 21.3512L50.7575 17.8073C50.2516 18.2284 49.7719 18.6817 49.3217 19.1642L54.4048 22.9151C54.6002 23.059 54.8484 23.1146 55.0949 23.0698C55.3414 23.0249 55.566 22.8832 55.7192 22.6758Z" fill="#D1A695"/>
</svg>
