<svg width="165" height="155" viewBox="0 0 165 155" fill="none" xmlns="http://www.w3.org/2000/svg">
<g filter="url(#filter0_f)">
<path d="M154.232 58.123C156.865 69.1994 159.266 100.701 151.597 114.58C144.322 127.748 131.49 137.668 119.625 141.809C103.626 147.396 91.636 147.654 83.1587 146.221C79.0598 145.53 75.1549 143.974 71.7034 141.658C68.252 139.341 65.333 136.317 63.1404 132.785C51.7209 114.322 46.1037 120.303 32.7987 118.809C-0.548896 115.069 8.86969 62.9933 10.3393 58.3842C9.02454 74.0818 17.2468 86.7705 32.7987 89.4485C38.9502 90.5051 51.7209 84.9578 63.1404 103.425C65.333 106.956 68.252 109.98 71.7034 112.297C75.1549 114.613 79.0598 116.169 83.1587 116.86C91.636 118.293 103.596 117.941 119.625 112.448C142.609 104.572 157.102 81.8881 154.232 58.123Z" fill="#F3C4AD"/>
<path d="M154.231 58.1231C157.101 81.8882 142.608 104.572 119.624 112.448C103.595 117.941 91.6351 118.293 83.1577 116.86C79.0588 116.169 75.1539 114.614 71.7025 112.297C68.251 109.981 65.332 106.956 63.1395 103.425C51.72 84.9579 38.9493 90.5052 32.7978 89.4486C17.2459 86.7706 9.02361 74.0819 10.3383 58.3843C11.9172 39.5471 22.778 9.43922 75.8251 8.04556C95.9253 7.51724 116.882 11.5039 132.452 24.2017C146.203 35.4147 151.562 43.3394 153.727 54.85C153.934 55.9431 154.102 57.0341 154.231 58.1231Z" fill="#E8CFD0"/>
<path d="M146.927 55.8068C151.411 77.3311 138.796 98.1418 117.775 104.882C103.757 109.373 93.2421 109.501 85.7668 108.143C82.1479 107.488 78.7016 106.097 75.6405 104.059C72.5793 102.02 69.9682 99.3761 67.968 96.2897C57.6507 80.2307 43.1889 84.7943 37.763 83.7953C24.045 81.2631 16.6304 70.2231 17.5565 56.7329C18.6678 40.5434 31.0953 14.8108 77.7297 14.3887C95.3979 14.2278 113.886 17.9655 127.768 29.1178C140.028 38.9736 144.856 45.8721 146.927 55.8068Z" fill="#9B292B"/>
<path d="M119.348 63.543C126.207 68.0246 128.339 76.9058 124.109 83.3852C119.88 89.8647 110.889 91.48 104.027 86.9984C97.1652 82.5168 95.0338 73.6326 99.2663 67.1562C103.499 60.6798 112.486 59.0615 119.348 63.543Z" fill="#F3C4AD"/>
<path d="M116.048 68.5952C119.949 71.1457 121.164 76.2011 118.756 79.8871C116.348 83.5732 111.232 84.4932 107.327 81.9457C103.423 79.3983 102.208 74.3398 104.616 70.6538C107.024 66.9677 112.143 66.0447 116.048 68.5952Z" fill="#DF5255"/>
<path d="M94.8756 108.143C91.2567 107.488 87.8105 106.098 84.7493 104.059C81.6882 102.02 79.0771 99.3761 77.0769 96.2897C66.7596 80.2308 52.2977 84.7943 46.8719 83.7954C33.1539 81.2631 25.7393 70.2231 26.6653 56.7329C27.7481 40.9578 39.5808 16.1264 83.3292 14.4744C81.4577 14.4009 79.5912 14.3724 77.7297 14.3888C31.0953 14.8108 18.6678 40.5434 17.5565 56.7329C16.6304 70.2231 24.045 81.2631 37.763 83.7954C43.1889 84.7943 57.6507 80.2308 67.968 96.2897C69.9682 99.3761 72.5793 102.02 75.6405 104.059C78.7016 106.098 82.1479 107.488 85.7668 108.143C90.2039 108.911 94.7216 109.103 99.2078 108.714C97.663 108.582 96.2198 108.388 94.8756 108.143Z" fill="#7C2022"/>
<path d="M35.5554 36.7848C35.1903 36.7846 34.8338 36.6747 34.532 36.4694C34.2302 36.2641 33.997 35.9729 33.8627 35.6335C33.7284 35.2941 33.6991 34.9221 33.7787 34.5659C33.8582 34.2097 34.043 33.8856 34.309 33.6356C41.7618 26.6475 52.3509 22.265 65.7823 20.6099C66.2618 20.5508 66.7452 20.6846 67.1261 20.9819C67.5069 21.2792 67.7541 21.7156 67.8132 22.1951C67.8723 22.6747 67.7385 23.1581 67.4412 23.5389C67.144 23.9198 66.7075 24.167 66.228 24.2261C53.5794 25.7849 43.6787 29.8451 36.8012 36.2939C36.4637 36.6104 36.018 36.786 35.5554 36.7848Z" fill="#F4F8FC"/>
<path d="M73.9925 23.5919C73.517 23.5902 73.0609 23.4026 72.7218 23.0692C72.3827 22.7358 72.1874 22.283 72.1776 21.8075C72.1679 21.3321 72.3444 20.8716 72.6696 20.5246C72.9948 20.1775 73.4427 19.9714 73.9178 19.9502C75.177 19.8977 76.4759 19.8649 77.7785 19.853H77.7955C78.2786 19.8509 78.7429 20.0408 79.086 20.3809C79.4292 20.7211 79.6232 21.1836 79.6253 21.6668C79.6274 22.1499 79.4375 22.6142 79.0974 22.9573C78.7573 23.3005 78.2947 23.4945 77.8116 23.4966C76.5485 23.5081 75.2896 23.54 74.0699 23.5907C74.0438 23.5916 74.018 23.5919 73.9925 23.5919Z" fill="#F4F8FC"/>
<path d="M99.0894 129.04C98.6062 129.04 98.1428 129.232 97.8012 129.574C97.4595 129.915 97.2676 130.379 97.2676 130.862V146.767C98.4821 146.678 99.6966 146.555 100.911 146.397V130.862C100.911 130.379 100.719 129.915 100.378 129.574C100.036 129.232 99.5725 129.04 99.0894 129.04Z" fill="#D1A695"/>
<path d="M108.502 135.802C108.019 135.802 107.555 135.994 107.214 136.336C106.872 136.677 106.68 137.141 106.68 137.624V145.418C107.895 145.176 109.109 144.902 110.324 144.594V137.624C110.324 137.141 110.132 136.677 109.79 136.336C109.448 135.994 108.985 135.802 108.502 135.802Z" fill="#D1A695"/>
<path d="M21.0566 93.1938C20.5735 93.1938 20.1101 93.3858 19.7684 93.7274C19.4268 94.0691 19.2349 94.5325 19.2349 95.0156V113.181C20.3776 114.121 21.5909 114.972 22.8641 115.727C22.8732 115.655 22.878 115.582 22.8784 115.509V95.0156C22.8784 94.5325 22.6865 94.0691 22.3448 93.7274C22.0032 93.3858 21.5398 93.1938 21.0566 93.1938Z" fill="#D1A695"/>
<path d="M30.1657 104.198C29.683 104.185 29.2148 104.364 28.8637 104.696C28.5125 105.027 28.3069 105.484 28.292 105.967L27.9492 117.849C29.1375 118.194 30.3475 118.46 31.5712 118.644L31.9356 106.071C31.9491 105.588 31.7703 105.119 31.4384 104.768C31.1065 104.417 30.6487 104.212 30.1657 104.198Z" fill="#D1A695"/>
</g>
<defs>
<filter id="filter0_f" x="0.000976562" y="0" width="164.777" height="154.958" filterUnits="userSpaceOnUse" color-interpolation-filters="sRGB">
<feFlood flood-opacity="0" result="BackgroundImageFix"/>
<feBlend mode="normal" in="SourceGraphic" in2="BackgroundImageFix" result="shape"/>
<feGaussianBlur stdDeviation="4" result="effect1_foregroundBlur"/>
</filter>
</defs>
</svg>
