<svg width="123" height="124" viewBox="0 0 123 124" fill="none" xmlns="http://www.w3.org/2000/svg">
<path d="M22.7242 40.1877C26.484 34.6725 39.1851 21.1905 48.2279 19.0325C56.8069 16.984 66.1727 18.6262 72.6534 22.1321C81.3925 26.8577 86.2398 31.9513 88.9668 36.1905C90.2862 38.2396 91.1543 40.5459 91.5137 42.9563C91.8731 45.3667 91.7154 47.826 91.0512 50.1708C87.5608 62.411 92.371 62.4826 96.9784 68.8377C108.528 84.7647 82.2437 101.25 79.6662 102.434C86.9873 96.804 89.238 88.23 84.2563 80.4336C82.2847 77.3508 74.8374 74.0081 78.3291 61.7667C78.9933 59.4219 79.151 56.9626 78.7916 54.5522C78.4322 52.1418 77.564 49.8354 76.2447 47.7864C73.5177 43.5471 68.6416 38.5039 59.9313 33.728C47.441 26.8792 31.8885 29.5586 22.7242 40.1877Z" fill="#F3C4AD"/>
<path d="M22.7242 40.1872C31.8884 29.5581 47.441 26.8787 59.9313 33.7275C68.6416 38.5035 73.5177 43.5467 76.2447 47.7859C77.564 49.835 78.4322 52.1413 78.7916 54.5517C79.151 56.9621 78.9933 59.4214 78.3291 61.7662C74.8374 74.0076 82.2847 77.3503 84.2563 80.4331C89.238 88.2295 86.9873 96.8035 79.6662 102.434C70.8805 109.189 53.5454 116.374 31.9912 93.9387C23.8239 85.4378 17.2748 74.7828 16.6275 63.0213C16.0552 52.6343 17.3725 47.1824 21.505 41.6983C21.8971 41.1771 22.3035 40.6734 22.7242 40.1872Z" fill="#E8CFD0"/>
<path d="M24.606 44.2678C32.1613 33.8237 46.1611 31.0712 57.3835 37.5172C64.8657 41.8179 69.0737 46.3236 71.4379 50.0988C72.583 51.9259 73.3417 53.9681 73.6673 56.0997C73.9929 58.2313 73.8785 60.4069 73.3311 62.4926C70.4474 73.3055 78.1364 77.7695 79.8464 80.5151C84.1669 87.4592 82.3116 95.0322 76.1005 99.9588C68.6467 105.871 52.5887 110.649 33.9881 90.6089C26.9405 83.0168 21.2584 73.5297 20.6082 63.1101C20.0366 53.9051 21.119 49.0887 24.606 44.2678Z" fill="#9B292B"/>
<path d="M38.8499 53.1622C38.0829 48.4203 41.0893 43.9891 45.5673 43.2628C50.0452 42.5365 54.2958 45.7941 55.064 50.5374C55.8323 55.2807 52.8245 59.7131 48.3467 60.4369C43.8688 61.1607 39.6181 57.9056 38.8499 53.1622Z" fill="#F3C4AD"/>
<path d="M42.3426 52.5969C41.9068 49.8991 43.6177 47.3762 46.1658 46.9637C48.7139 46.5512 51.1331 48.4047 51.5714 51.1028C52.0097 53.8008 50.2975 56.3248 47.7494 56.7373C45.2013 57.1498 42.7796 55.2962 42.3426 52.5969Z" fill="#DF5255"/>
<path d="M67.8402 46.1515C68.9853 47.9786 69.7441 50.0209 70.0697 52.1525C70.3953 54.284 70.2808 56.4597 69.7334 58.5453C66.8498 69.3582 74.5387 73.8223 76.2487 76.5678C80.5693 83.512 78.714 91.0849 72.5029 96.0115C65.2399 101.773 49.8073 106.452 31.8135 88.1485C32.5208 88.9885 33.2456 89.8085 33.9879 90.6086C52.5885 110.649 68.6465 105.871 76.1003 99.9585C82.3114 95.0319 84.1667 87.4589 79.8462 80.5148C78.1362 77.7692 70.4472 73.3051 73.3309 62.4922C73.8783 60.4066 73.9927 58.231 73.6671 56.0994C73.3415 53.9678 72.5828 51.9256 71.4377 50.0985C70.0179 47.8727 68.3167 45.8394 66.3764 44.0492C66.9296 44.7704 67.4151 45.4727 67.8402 46.1515Z" fill="#7C2022"/>
<path d="M60.3483 100.037C60.4923 100.196 60.5855 100.393 60.6158 100.605C60.646 100.817 60.6119 101.033 60.5179 101.225C60.4239 101.418 60.2743 101.577 60.0885 101.684C59.9027 101.79 59.6893 101.838 59.476 101.821C53.5046 101.352 47.4236 98.4942 41.4019 93.328C41.1869 93.1436 41.054 92.8813 41.0324 92.5989C41.0108 92.3164 41.1023 92.0369 41.2867 91.8219C41.4711 91.6069 41.7334 91.474 42.0159 91.4524C42.2983 91.4308 42.5778 91.5223 42.7928 91.7067C48.4637 96.5717 54.1331 99.2583 59.6435 99.6914C59.914 99.7126 60.1661 99.8364 60.3483 100.037Z" fill="#F4F8FC"/>
<path d="M39.4515 88.5932C39.6386 88.8 39.7374 89.0717 39.7269 89.3503C39.7163 89.6289 39.5972 89.8924 39.3951 90.0844C39.1929 90.2764 38.9237 90.3817 38.6449 90.3779C38.3661 90.3741 38.0998 90.2614 37.903 90.0639C37.383 89.539 36.8558 88.9891 36.3362 88.4294L36.3295 88.422C36.1377 88.2135 36.0367 87.9374 36.0485 87.6543C36.0604 87.3713 36.1842 87.1046 36.3927 86.9128C36.6012 86.7211 36.8774 86.62 37.1604 86.6319C37.4434 86.6438 37.7101 86.7676 37.9019 86.9761C38.4057 87.5188 38.9167 88.0517 39.4204 88.5602C39.4311 88.5711 39.4414 88.5822 39.4515 88.5932Z" fill="#F4F8FC"/>
<path d="M75.2408 36.0617C75.434 36.274 75.7022 36.4022 75.9864 36.4179C76.2706 36.4337 76.5475 36.3358 76.7562 36.1457L83.6271 29.8893C83.1029 29.3907 82.5639 28.9055 82.01 28.4339L75.2992 34.5445C75.0905 34.7345 74.9671 35.0012 74.9561 35.2857C74.9452 35.5702 75.0475 35.8494 75.2408 36.0617Z" fill="#D1A695"/>
<path d="M74.4523 29.3137C74.6452 29.5257 74.913 29.6536 75.1968 29.6693C75.4805 29.6851 75.757 29.5874 75.9654 29.3977L79.3267 26.3384C78.7375 25.9006 78.1341 25.4757 77.5165 25.0638L74.5106 27.7996C74.3022 27.9893 74.179 28.2553 74.1681 28.5393C74.1571 28.8232 74.2594 29.1018 74.4523 29.3137Z" fill="#D1A695"/>
<path d="M90.5265 84.0293C90.7199 84.2419 90.9884 84.3703 91.2729 84.3861C91.5575 84.4019 91.8347 84.3039 92.0436 84.1137L99.898 76.9605C99.8471 76.0872 99.7294 75.218 99.5459 74.3606C99.511 74.385 99.4777 74.4115 99.446 74.44L90.5848 82.5102C90.3759 82.7004 90.2524 82.9674 90.2414 83.2523C90.2305 83.5372 90.333 83.8167 90.5265 84.0293Z" fill="#D1A695"/>
<path d="M91.6974 75.7356C91.8847 75.9528 92.149 76.0881 92.4325 76.1121C92.7159 76.1361 92.9954 76.0467 93.2098 75.8635L98.4767 71.3432C98.1509 70.6854 97.7821 70.0494 97.3726 69.4394L91.7983 74.2223C91.5843 74.4062 91.4535 74.6689 91.4346 74.9527C91.4157 75.2365 91.5102 75.5182 91.6974 75.7356Z" fill="#D1A695"/>
</svg>
