<svg width="618" height="618" viewBox="0 0 618 618" fill="none" xmlns="http://www.w3.org/2000/svg">
<path d="M435.25 433.75C504.7 364.3 504.7 251.7 435.25 182.25C365.8 112.8 253.2 112.8 183.75 182.25C114.3 251.7 114.3 364.3 183.75 433.75C253.2 503.2 365.8 503.2 435.25 433.75Z" fill="white" fill-opacity="0.04"/>
<path d="M463.5 463.5C548.828 378.172 548.828 239.828 463.5 154.5C378.172 69.172 239.828 69.172 154.5 154.5C69.172 239.828 69.172 378.172 154.5 463.5C239.828 548.828 378.172 548.828 463.5 463.5Z" fill="white" fill-opacity="0.04"/>
<path d="M404.954 404.954C457.965 351.943 457.965 265.996 404.954 212.985C351.943 159.974 265.996 159.974 212.985 212.985C159.974 265.996 159.974 351.943 212.985 404.954C265.996 457.965 351.943 457.965 404.954 404.954Z" fill="white"/>
<path d="M332.218 401.947C342.844 393.052 344.248 377.227 335.353 366.6C326.458 355.973 310.633 354.569 300.006 363.464C289.379 372.359 287.975 388.185 296.87 398.812C305.765 409.439 321.591 410.843 332.218 401.947Z" fill="#EBEBEB"/>
<path d="M292.937 385.025C292.932 379.982 294.448 375.055 297.287 370.888C300.127 366.721 304.157 363.508 308.852 361.668C313.546 359.827 318.687 359.446 323.602 360.574C328.517 361.702 332.977 364.286 336.4 367.989C334.397 365.215 331.847 362.88 328.907 361.129C325.967 359.377 322.7 358.247 319.307 357.806C315.914 357.365 312.466 357.625 309.177 358.567C305.887 359.51 302.826 361.116 300.181 363.287C297.536 365.458 295.363 368.147 293.797 371.19C292.231 374.232 291.305 377.563 291.075 380.977C290.845 384.391 291.317 387.816 292.461 391.041C293.606 394.266 295.398 397.222 297.729 399.728C294.614 395.458 292.936 390.31 292.937 385.025Z" fill="#DFDFDF"/>
<path d="M264.066 287.025C265.289 267.956 250.822 251.506 231.753 250.283C212.683 249.06 196.233 263.528 195.011 282.597C193.788 301.666 208.255 318.116 227.324 319.339C246.393 320.562 262.843 306.095 264.066 287.025Z" fill="#EBEBEB"/>
<path d="M197.571 288.016C197.567 281.063 199.659 274.27 203.575 268.524C207.492 262.779 213.049 258.348 219.523 255.811C225.997 253.273 233.085 252.747 239.862 254.301C246.64 255.854 252.791 259.416 257.513 264.52C254.752 260.688 251.236 257.462 247.181 255.041C243.125 252.62 238.617 251.057 233.934 250.446C229.251 249.835 224.492 250.191 219.951 251.49C215.411 252.79 211.185 255.006 207.534 258.003C203.884 260.999 200.886 264.711 198.725 268.911C196.565 273.111 195.288 277.709 194.974 282.421C194.659 287.133 195.314 291.86 196.897 296.31C198.48 300.759 200.958 304.837 204.178 308.292C199.883 302.404 197.57 295.304 197.571 288.016Z" fill="#DFDFDF"/>
<path d="M379.643 251.415C387.768 251.415 394.354 244.829 394.354 236.704C394.354 228.58 387.768 221.994 379.643 221.994C371.519 221.994 364.933 228.58 364.933 236.704C364.933 244.829 371.519 251.415 379.643 251.415Z" fill="#EBEBEB"/>
<path d="M366.057 238.074C366.054 235.117 366.943 232.227 368.609 229.784C370.274 227.34 372.637 225.455 375.39 224.376C378.143 223.297 381.158 223.073 384.04 223.734C386.922 224.396 389.538 225.911 391.545 228.082C390.371 226.453 388.876 225.082 387.152 224.054C385.428 223.025 383.511 222.361 381.52 222.101C379.529 221.842 377.506 221.993 375.576 222.546C373.646 223.099 371.849 224.041 370.297 225.315C368.745 226.589 367.47 228.167 366.552 229.952C365.633 231.737 365.09 233.692 364.956 235.695C364.822 237.699 365.1 239.708 365.773 241.6C366.445 243.492 367.498 245.226 368.867 246.695C367.04 244.191 366.057 241.172 366.057 238.074Z" fill="#DFDFDF"/>
<path d="M312.614 212.93C314.945 203.105 308.871 193.251 299.047 190.919C289.222 188.588 279.368 194.662 277.037 204.487C274.705 214.311 280.78 224.165 290.604 226.497C300.428 228.828 310.283 222.754 312.614 212.93Z" fill="#EBEBEB"/>
<path d="M277.94 210.409C277.937 206.734 279.042 203.143 281.112 200.107C283.181 197.07 286.118 194.728 289.54 193.387C292.961 192.046 296.708 191.768 300.29 192.59C303.872 193.412 307.122 195.295 309.617 197.993C308.159 195.967 306.301 194.262 304.158 192.983C302.014 191.703 299.632 190.876 297.157 190.553C294.682 190.231 292.167 190.418 289.767 191.105C287.368 191.792 285.134 192.964 283.205 194.547C281.276 196.131 279.691 198.093 278.55 200.313C277.409 202.533 276.734 204.963 276.569 207.453C276.403 209.944 276.75 212.442 277.587 214.793C278.425 217.145 279.735 219.299 281.438 221.125C279.166 218.013 277.941 214.261 277.94 210.409Z" fill="#DFDFDF"/>
<path d="M321.657 203.577C319.966 203.577 318.313 203.076 316.907 202.136C315.5 201.197 314.404 199.861 313.757 198.299C313.11 196.736 312.941 195.017 313.271 193.358C313.601 191.7 314.416 190.176 315.612 188.981C316.807 187.785 318.331 186.971 319.99 186.641C321.649 186.311 323.368 186.481 324.93 187.128C326.492 187.775 327.828 188.872 328.767 190.278C329.706 191.684 330.207 193.337 330.207 195.029C330.207 196.151 329.986 197.263 329.556 198.3C329.127 199.338 328.497 200.28 327.703 201.074C326.909 201.868 325.966 202.497 324.929 202.927C323.891 203.356 322.78 203.577 321.657 203.577Z" fill="#EBEBEB"/>
<path d="M313.762 195.824C313.76 194.106 314.276 192.426 315.244 191.006C316.211 189.585 317.585 188.49 319.185 187.862C320.786 187.235 322.538 187.105 324.213 187.49C325.888 187.874 327.409 188.755 328.575 190.017C327.893 189.071 327.024 188.275 326.022 187.677C325.02 187.08 323.906 186.694 322.749 186.543C321.592 186.392 320.416 186.48 319.295 186.802C318.173 187.123 317.129 187.67 316.227 188.41C315.325 189.15 314.585 190.067 314.051 191.105C313.517 192.142 313.201 193.278 313.123 194.442C313.045 195.606 313.206 196.774 313.597 197.873C313.987 198.973 314.599 199.98 315.394 200.834C314.333 199.379 313.762 197.625 313.762 195.824Z" fill="#DFDFDF"/>
<path d="M186.375 317.519C184.684 317.52 183.031 317.019 181.624 316.079C180.218 315.14 179.122 313.805 178.475 312.242C177.827 310.68 177.658 308.961 177.987 307.302C178.317 305.643 179.131 304.12 180.327 302.924C181.523 301.728 183.046 300.913 184.705 300.583C186.363 300.253 188.083 300.423 189.645 301.07C191.208 301.717 192.543 302.813 193.483 304.219C194.422 305.625 194.924 307.278 194.924 308.969C194.924 311.237 194.023 313.411 192.42 315.015C190.817 316.618 188.642 317.519 186.375 317.519Z" fill="#EBEBEB"/>
<path d="M178.479 309.765C178.477 308.046 178.993 306.367 179.961 304.946C180.928 303.526 182.302 302.43 183.902 301.803C185.503 301.176 187.255 301.046 188.93 301.43C190.605 301.815 192.126 302.696 193.292 303.958C192.609 303.014 191.74 302.22 190.738 301.625C189.737 301.03 188.624 300.645 187.468 300.496C186.313 300.347 185.139 300.436 184.019 300.757C182.899 301.078 181.856 301.625 180.956 302.365C180.055 303.104 179.315 304.019 178.782 305.055C178.248 306.091 177.932 307.225 177.853 308.388C177.774 309.55 177.934 310.716 178.322 311.815C178.711 312.913 179.32 313.921 180.112 314.775C179.051 313.32 178.478 311.566 178.479 309.765Z" fill="#DFDFDF"/>
<path d="M233.952 246.696C233.106 246.696 232.28 246.445 231.577 245.975C230.874 245.506 230.326 244.838 230.003 244.057C229.679 243.276 229.595 242.417 229.76 241.587C229.924 240.758 230.331 239.997 230.929 239.399C231.527 238.801 232.289 238.394 233.118 238.229C233.947 238.064 234.806 238.149 235.587 238.472C236.368 238.796 237.036 239.344 237.506 240.047C237.975 240.75 238.226 241.576 238.226 242.421C238.226 242.983 238.116 243.539 237.901 244.057C237.686 244.576 237.372 245.047 236.975 245.444C236.578 245.841 236.106 246.156 235.588 246.371C235.069 246.585 234.513 246.696 233.952 246.696Z" fill="#EBEBEB"/>
<path d="M230.004 242.818C230.003 241.959 230.261 241.119 230.745 240.409C231.229 239.699 231.915 239.151 232.715 238.837C233.516 238.524 234.392 238.459 235.229 238.651C236.067 238.844 236.827 239.284 237.41 239.916C237.069 239.441 236.635 239.042 236.134 238.742C235.632 238.442 235.075 238.248 234.496 238.172C233.917 238.096 233.328 238.139 232.767 238.3C232.205 238.46 231.682 238.734 231.231 239.105C230.779 239.475 230.408 239.934 230.141 240.454C229.874 240.973 229.717 241.542 229.678 242.125C229.64 242.708 229.721 243.292 229.918 243.842C230.114 244.392 230.421 244.896 230.82 245.323C230.289 244.596 230.003 243.719 230.004 242.818Z" fill="#DFDFDF"/>
<path d="M203.948 326.069C203.102 326.069 202.276 325.818 201.573 325.349C200.87 324.879 200.322 324.211 199.999 323.43C199.675 322.649 199.591 321.79 199.756 320.961C199.921 320.132 200.328 319.37 200.925 318.772C201.523 318.174 202.285 317.767 203.114 317.602C203.943 317.437 204.802 317.522 205.583 317.846C206.365 318.169 207.032 318.717 207.502 319.42C207.971 320.123 208.222 320.949 208.222 321.795C208.222 322.928 207.772 324.015 206.97 324.817C206.169 325.619 205.081 326.069 203.948 326.069Z" fill="#EBEBEB"/>
<path d="M199.992 322.192C199.989 321.33 200.246 320.487 200.731 319.775C201.216 319.062 201.904 318.513 202.707 318.199C203.509 317.885 204.388 317.821 205.227 318.015C206.067 318.21 206.828 318.654 207.41 319.289C207.07 318.814 206.635 318.415 206.134 318.115C205.633 317.815 205.076 317.621 204.497 317.545C203.917 317.469 203.329 317.513 202.767 317.673C202.206 317.834 201.683 318.108 201.231 318.478C200.78 318.849 200.409 319.308 200.142 319.827C199.875 320.347 199.717 320.915 199.679 321.498C199.64 322.081 199.722 322.666 199.918 323.216C200.115 323.766 200.422 324.27 200.821 324.696C200.285 323.971 199.995 323.093 199.992 322.192Z" fill="#DFDFDF"/>
<path d="M349.802 379.628C348.957 379.629 348.13 379.378 347.426 378.908C346.723 378.439 346.175 377.771 345.851 376.99C345.527 376.209 345.442 375.349 345.607 374.519C345.772 373.69 346.179 372.928 346.777 372.329C347.375 371.731 348.137 371.324 348.966 371.159C349.795 370.994 350.655 371.078 351.437 371.402C352.218 371.725 352.886 372.273 353.356 372.977C353.826 373.68 354.077 374.507 354.077 375.352C354.077 376.486 353.626 377.574 352.825 378.375C352.023 379.177 350.936 379.628 349.802 379.628Z" fill="#EBEBEB"/>
<path d="M345.856 375.752C345.854 374.892 346.113 374.053 346.597 373.342C347.08 372.632 347.767 372.084 348.567 371.771C349.367 371.457 350.243 371.392 351.081 371.585C351.918 371.777 352.678 372.218 353.261 372.849C352.921 372.374 352.486 371.975 351.985 371.675C351.484 371.375 350.927 371.181 350.348 371.105C349.769 371.029 349.18 371.073 348.618 371.233C348.057 371.394 347.534 371.668 347.083 372.038C346.631 372.409 346.26 372.868 345.993 373.387C345.726 373.907 345.569 374.475 345.53 375.058C345.492 375.641 345.573 376.226 345.769 376.776C345.966 377.326 346.273 377.83 346.672 378.256C346.141 377.529 345.855 376.652 345.856 375.752Z" fill="#DFDFDF"/>
<path d="M378.24 261.766C377.394 261.766 376.568 261.515 375.865 261.046C375.162 260.576 374.614 259.908 374.291 259.127C373.967 258.346 373.883 257.487 374.048 256.658C374.213 255.829 374.62 255.067 375.217 254.469C375.815 253.871 376.577 253.464 377.406 253.299C378.235 253.134 379.094 253.219 379.875 253.543C380.657 253.866 381.324 254.414 381.794 255.117C382.263 255.82 382.514 256.646 382.514 257.492C382.514 258.625 382.064 259.712 381.262 260.514C380.461 261.316 379.373 261.766 378.24 261.766Z" fill="#EBEBEB"/>
<path d="M374.292 257.889C374.291 257.03 374.549 256.19 375.033 255.48C375.517 254.769 376.203 254.222 377.004 253.908C377.804 253.594 378.68 253.53 379.517 253.722C380.355 253.914 381.115 254.355 381.698 254.986C381.357 254.512 380.923 254.112 380.422 253.812C379.92 253.512 379.363 253.318 378.784 253.242C378.205 253.166 377.616 253.21 377.055 253.37C376.493 253.531 375.97 253.805 375.519 254.175C375.067 254.546 374.697 255.005 374.43 255.525C374.163 256.044 374.005 256.613 373.966 257.196C373.928 257.778 374.009 258.363 374.206 258.913C374.402 259.463 374.709 259.967 375.108 260.394C374.577 259.666 374.292 258.789 374.292 257.889Z" fill="#DFDFDF"/>
<path d="M419.782 296.648C418.09 296.648 416.437 296.146 415.031 295.207C413.625 294.267 412.529 292.932 411.882 291.369C411.235 289.807 411.066 288.088 411.396 286.429C411.726 284.77 412.54 283.247 413.736 282.051C414.932 280.855 416.456 280.041 418.115 279.712C419.773 279.382 421.492 279.551 423.055 280.199C424.617 280.846 425.952 281.942 426.892 283.349C427.831 284.755 428.332 286.408 428.332 288.099C428.331 290.367 427.43 292.541 425.827 294.144C424.224 295.747 422.049 296.648 419.782 296.648Z" fill="#EBEBEB"/>
<path d="M411.887 288.895C411.884 287.176 412.401 285.497 413.369 284.076C414.336 282.656 415.71 281.56 417.31 280.933C418.91 280.306 420.663 280.176 422.338 280.56C424.013 280.945 425.533 281.826 426.7 283.088C426.018 282.142 425.148 281.345 424.146 280.748C423.144 280.15 422.031 279.764 420.874 279.614C419.717 279.463 418.541 279.551 417.42 279.872C416.298 280.193 415.254 280.741 414.352 281.481C413.45 282.221 412.71 283.138 412.176 284.175C411.642 285.213 411.326 286.349 411.248 287.513C411.17 288.677 411.331 289.844 411.722 290.944C412.112 292.043 412.724 293.051 413.519 293.905C412.457 292.45 411.886 290.696 411.887 288.895Z" fill="#DFDFDF"/>
<path d="M364.935 419.443C363.244 419.443 361.591 418.942 360.185 418.002C358.779 417.063 357.683 415.727 357.036 414.165C356.389 412.602 356.22 410.883 356.55 409.225C356.88 407.566 357.694 406.042 358.89 404.847C360.086 403.651 361.61 402.837 363.268 402.507C364.927 402.177 366.646 402.347 368.209 402.994C369.771 403.642 371.106 404.738 372.045 406.144C372.985 407.55 373.486 409.204 373.486 410.895C373.485 413.162 372.584 415.337 370.981 416.94C369.377 418.543 367.203 419.443 364.935 419.443Z" fill="#EBEBEB"/>
<path d="M357.045 411.69C357.043 409.971 357.56 408.293 358.528 406.873C359.495 405.453 360.869 404.358 362.469 403.731C364.069 403.104 365.82 402.974 367.495 403.358C369.17 403.742 370.69 404.623 371.856 405.884C371.173 404.941 370.304 404.147 369.302 403.551C368.301 402.956 367.188 402.572 366.032 402.423C364.877 402.273 363.703 402.362 362.583 402.683C361.463 403.005 360.421 403.552 359.52 404.291C358.619 405.03 357.879 405.946 357.346 406.982C356.812 408.017 356.496 409.151 356.417 410.314C356.338 411.476 356.498 412.643 356.886 413.741C357.275 414.84 357.884 415.847 358.677 416.701C357.615 415.246 357.044 413.491 357.045 411.69Z" fill="#DFDFDF"/>
<path d="M351.121 365.556C358.749 365.556 364.933 359.372 364.933 351.745C364.933 344.117 358.749 337.934 351.121 337.934C343.494 337.934 337.31 344.117 337.31 351.745C337.31 359.372 343.494 365.556 351.121 365.556Z" fill="#EBEBEB"/>
<path d="M338.367 353.029C338.364 350.253 339.198 347.54 340.761 345.246C342.324 342.951 344.543 341.182 347.128 340.169C349.713 339.155 352.543 338.946 355.249 339.567C357.955 340.188 360.41 341.611 362.294 343.65C361.192 342.121 359.788 340.835 358.17 339.869C356.551 338.904 354.752 338.281 352.883 338.037C351.014 337.794 349.115 337.936 347.303 338.455C345.492 338.974 343.805 339.858 342.349 341.054C340.892 342.249 339.695 343.731 338.833 345.407C337.971 347.082 337.461 348.917 337.335 350.797C337.209 352.678 337.469 354.564 338.1 356.34C338.731 358.116 339.719 359.744 341.003 361.123C339.289 358.772 338.366 355.938 338.367 353.029Z" fill="#DFDFDF"/>
<path d="M265.952 402.345C273.58 402.345 279.763 396.162 279.763 388.534C279.763 380.906 273.58 374.723 265.952 374.723C258.325 374.723 252.141 380.906 252.141 388.534C252.141 396.162 258.325 402.345 265.952 402.345Z" fill="#EBEBEB"/>
<path d="M253.199 389.818C253.197 387.042 254.031 384.33 255.595 382.035C257.158 379.741 259.377 377.972 261.962 376.959C264.546 375.946 267.376 375.736 270.082 376.357C272.788 376.978 275.244 378.401 277.128 380.439C276.025 378.912 274.621 377.627 273.003 376.663C271.385 375.699 269.586 375.076 267.718 374.834C265.85 374.591 263.952 374.734 262.141 375.253C260.33 375.771 258.644 376.656 257.188 377.851C255.732 379.046 254.536 380.526 253.674 382.201C252.811 383.876 252.301 385.71 252.174 387.589C252.047 389.469 252.307 391.354 252.937 393.13C253.566 394.905 254.553 396.533 255.835 397.912C254.122 395.562 253.199 392.727 253.199 389.818Z" fill="#DFDFDF"/>
<path opacity="0.2" d="M279.005 392.412C244.908 392.308 211.683 381.621 183.919 361.827C197.407 393.739 222.584 419.286 254.296 433.238C286.008 447.189 321.853 448.489 354.492 436.87C387.131 425.252 414.092 401.594 429.855 370.743C445.618 339.892 448.989 304.181 439.278 270.925C429.615 305.966 408.682 336.851 379.714 358.809C350.746 380.766 315.354 392.575 279.005 392.412Z" fill="#B8B8B8"/>
<path opacity="0.2" d="M290.259 416.836C257.952 416.736 226.389 407.132 199.501 389.222C216.214 412.026 239.632 429.042 266.485 437.891C293.338 446.741 322.284 446.983 349.281 438.583C376.278 430.183 399.977 413.562 417.069 391.04C434.161 368.517 443.791 341.219 444.616 312.958C432.266 343.752 410.945 370.122 383.42 388.645C355.895 407.169 323.437 416.991 290.259 416.836Z" fill="#B8B8B8"/>
</svg>
