<svg width="26" height="18" viewBox="0 0 26 18" fill="none" xmlns="http://www.w3.org/2000/svg">
<path d="M1.08334 6.11106H22.3016L20.3592 8.10331C19.9361 8.5372 19.9361 9.24055 20.3592 9.67444C20.571 9.89167 20.8478 10 21.1251 10C21.4024 10 21.6792 9.89167 21.891 9.67444L25.6827 5.7855C26.1058 5.3516 26.1058 4.64826 25.6827 4.21436L21.891 0.325421C21.468 -0.108474 20.7822 -0.108474 20.3592 0.325421C19.9361 0.759316 19.9361 1.46266 20.3592 1.89655L22.3016 3.8888H1.08334C0.485336 3.8888 0 4.38659 0 4.99993C0 5.61327 0.485336 6.11106 1.08334 6.11106Z" fill="white"/>
<path d="M24.9167 12.4999H3.69838L5.64081 10.7069C6.06385 10.3164 6.06385 9.68338 5.64081 9.29288C5.21831 8.90237 4.53147 8.90237 4.10897 9.29288L0.317283 12.7929C-0.105761 13.1834 -0.105761 13.8164 0.317283 14.2069L4.10897 17.707C4.32022 17.9025 4.59755 18 4.87489 18C5.15222 18 5.42956 17.9025 5.64081 17.707C6.06385 17.3165 6.06385 16.6835 5.64081 16.293L3.69838 14.5H24.9167C25.5147 14.5 26 14.0519 26 13.4999C26 12.9479 25.5147 12.4999 24.9167 12.4999Z" fill="white"/>
</svg>
